/* XPM */
static char *coin[] = {
/* columns rows colors chars-per-pixel */
"64 64 8 1",
"  c black",
". c #231E2B",
"X c #C2751D",
"o c #CF8934",
"O c #E2B436",
"+ c #F5F38E",
"@ c #F7FEFF",
"# c #A5C543",
/* pixels */
"########################@@@@@@@@@@@@@@@@########################",
"########################@@@@@@@@@@@@@@@@########################",
"########################@@@@@@@@@@@@@@@@########################",
"########################@@@@@@@@@@@@@@@@########################",
"################@@@@@@@@................@@@@@@@@################",
"################@@@@@@@@................@@@@@@@@################",
"################@@@@@@@@................@@@@@@@@################",
"################@@@@@@@@................@@@@@@@@################",
"############@@@@........OOOOOOOO++++++++........@@@@############",
"############@@@@........OOOOOOOO++++++++........@@@@############",
"############@@@@........OOOOOOOO++++++++........@@@@############",
"############@@@@........OOOOOOOO++++++++........@@@@############",
"########@@@@....OOOOOOOOOOOOOOOOOOOOOOOO++++++++....@@@@########",
"########@@@@....OOOOOOOOOOOOOOOOOOOOOOOO++++++++....@@@@########",
"########@@@@....OOOOOOOOOOOOOOOOOOOOOOOO++++++++....@@@@########",
"########@@@@....OOOOOOOOOOOOOOOOOOOOOOOO++++++++....@@@@########",
"####@@@@....OOOOOOOOOOOOooooooooXXXXXXXXOOOOOOOO++++....@@@@####",
"####@@@@....OOOOOOOOOOOOooooooooXXXXXXXXOOOOOOOO++++....@@@@####",
"####@@@@....OOOOOOOOOOOOooooooooXXXXXXXXOOOOOOOO++++....@@@@####",
"####@@@@....OOOOOOOOOOOOooooooooXXXXXXXXOOOOOOOO++++....@@@@####",
"####@@@@....OOOOOOOOooooooooooooooooooooXXXXOOOOOOOO....@@@@####",
"####@@@@....OOOOOOOOooooooooooooooooooooXXXXOOOOOOOO....@@@@####",
"####@@@@....OOOOOOOOooooooooooooooooooooXXXXOOOOOOOO....@@@@####",
"####@@@@....OOOOOOOOooooooooooooooooooooXXXXOOOOOOOO....@@@@####",
"@@@@....OOOOOOOOooooooooooooOOOO++++ooooooooXXXXOOOOOOOO....@@@@",
"@@@@....OOOOOOOOooooooooooooOOOO++++ooooooooXXXXOOOOOOOO....@@@@",
"@@@@....OOOOOOOOooooooooooooOOOO++++ooooooooXXXXOOOOOOOO....@@@@",
"@@@@....OOOOOOOOooooooooooooOOOO++++ooooooooXXXXOOOOOOOO....@@@@",
"@@@@....OOOOOOOOooooooooOOOOOOOOOOOO++++ooooooooOOOOOOOO....@@@@",
"@@@@....OOOOOOOOooooooooOOOOOOOOOOOO++++ooooooooOOOOOOOO....@@@@",
"@@@@....OOOOOOOOooooooooOOOOOOOOOOOO++++ooooooooOOOOOOOO....@@@@",
"@@@@....OOOOOOOOooooooooOOOOOOOOOOOO++++ooooooooOOOOOOOO....@@@@",
"@@@@....OOOOOOOOooooooooOOOOOOOOOOOOOOOOooooooooOOOOOOOO....@@@@",
"@@@@....OOOOOOOOooooooooOOOOOOOOOOOOOOOOooooooooOOOOOOOO....@@@@",
"@@@@....OOOOOOOOooooooooOOOOOOOOOOOOOOOOooooooooOOOOOOOO....@@@@",
"@@@@....OOOOOOOOooooooooOOOOOOOOOOOOOOOOooooooooOOOOOOOO....@@@@",
"@@@@....OOOOOOOOooooooooXXXXOOOOOOOOooooooooooooOOOOOOOO....@@@@",
"@@@@....OOOOOOOOooooooooXXXXOOOOOOOOooooooooooooOOOOOOOO....@@@@",
"@@@@....OOOOOOOOooooooooXXXXOOOOOOOOooooooooooooOOOOOOOO....@@@@",
"@@@@....OOOOOOOOooooooooXXXXOOOOOOOOooooooooooooOOOOOOOO....@@@@",
"####@@@@....OOOO++++ooooooooXXXXooooooooooooOOOOOOOO....@@@@####",
"####@@@@....OOOO++++ooooooooXXXXooooooooooooOOOOOOOO....@@@@####",
"####@@@@....OOOO++++ooooooooXXXXooooooooooooOOOOOOOO....@@@@####",
"####@@@@....OOOO++++ooooooooXXXXooooooooooooOOOOOOOO....@@@@####",
"####@@@@....OOOOOOOO++++ooooooooooooooooOOOOOOOOOOOO....@@@@####",
"####@@@@....OOOOOOOO++++ooooooooooooooooOOOOOOOOOOOO....@@@@####",
"####@@@@....OOOOOOOO++++ooooooooooooooooOOOOOOOOOOOO....@@@@####",
"####@@@@....OOOOOOOO++++ooooooooooooooooOOOOOOOOOOOO....@@@@####",
"########@@@@....OOOOOOOO++++++++OOOOOOOOOOOOOOOO....@@@@########",
"########@@@@....OOOOOOOO++++++++OOOOOOOOOOOOOOOO....@@@@########",
"########@@@@....OOOOOOOO++++++++OOOOOOOOOOOOOOOO....@@@@########",
"########@@@@....OOOOOOOO++++++++OOOOOOOOOOOOOOOO....@@@@########",
"############@@@@........OOOOOOOOOOOOOOOO........@@@@############",
"############@@@@........OOOOOOOOOOOOOOOO........@@@@############",
"############@@@@........OOOOOOOOOOOOOOOO........@@@@############",
"############@@@@........OOOOOOOOOOOOOOOO........@@@@############",
"################@@@@@@@@................@@@@@@@@################",
"################@@@@@@@@................@@@@@@@@################",
"################@@@@@@@@................@@@@@@@@################",
"################@@@@@@@@................@@@@@@@@################",
"########################@@@@@@@@@@@@@@@@########################",
"########################@@@@@@@@@@@@@@@@########################",
"########################@@@@@@@@@@@@@@@@########################",
"########################@@@@@@@@@@@@@@@@########################"
};
