/* XPM */
static char *door_closed[] = {
/* columns rows colors chars-per-pixel */
"50 64 128 2",
"   c black",
".  c #23101D",
"X  c #33171E",
"o  c #37181E",
"O  c #38191E",
"+  c #2B1421",
"@  c #311720",
"#  c #351925",
"$  c #3A1B27",
"%  c #3C1C28",
"&  c #3A2031",
"*  c #411E2A",
"=  c #4D271E",
"-  c #472227",
";  c #432028",
":  c #4C2327",
">  c #4A242B",
",  c #4E2A24",
"<  c #48292E",
"1  c #442331",
"2  c #4D2531",
"3  c #532728",
"4  c #542828",
"5  c #582A29",
"6  c #532730",
"7  c #542833",
"8  c #5B2B32",
"9  c #703715",
"0  c #763A13",
"q  c #632F2B",
"w  c #612E33",
"e  c #653426",
"r  c #64302D",
"t  c #683526",
"y  c #68322C",
"u  c #6B3A25",
"i  c #643234",
"p  c #6B3332",
"a  c #72342E",
"s  c #743A2A",
"d  c #7F3723",
"f  c #7A392F",
"g  c #713633",
"h  c #743934",
"j  c #753E39",
"k  c #7C3B33",
"l  c #7E411F",
"z  c #734523",
"x  c #72402A",
"c  c #7D4020",
"v  c #7E492D",
"b  c #7A543F",
"n  c #695E48",
"m  c #7D5948",
"M  c #863A25",
"N  c #843E2E",
"B  c #8D3E2C",
"V  c #823E32",
"C  c #844C10",
"Z  c #8D481B",
"A  c #8B550F",
"S  c #874527",
"D  c #884222",
"F  c #8A422F",
"G  c #864134",
"H  c #8B4334",
"J  c #93412B",
"K  c #9E472D",
"L  c #9B4920",
"P  c #9D4A2D",
"I  c #934532",
"U  c #994730",
"Y  c #89672D",
"T  c #A25019",
"R  c #B15916",
"E  c #BC5E13",
"W  c #BF591B",
"Q  c #A44A2D",
"!  c #AE4B27",
"~  c #AD4C2A",
"^  c #A7592E",
"/  c #AA5D21",
"(  c #A85B32",
")  c #AA5F3C",
"_  c #B64F27",
"`  c #B14D29",
"'  c #B84F27",
"]  c #B45125",
"[  c #B95026",
"{  c #AE6D14",
"}  c #8B6E52",
"|  c #887443",
" . c #837D57",
".. c #AC6345",
"X. c #C65E16",
"o. c #C25A1B",
"O. c #C4630D",
"+. c #CE660C",
"@. c #CA6211",
"#. c #CC6518",
"$. c #D1690A",
"%. c #D36D14",
"&. c #D06E2D",
"*. c #D8762B",
"=. c #D3733B",
"-. c #D97932",
";. c #D57845",
":. c #868159",
">. c #AEA870",
",. c #B6B478",
"<. c #D3850B",
"1. c #EA8804",
"2. c #E98D0C",
"3. c #F39402",
"4. c #FFA200",
"5. c #FDAA0E",
"6. c #F3BF3B",
"7. c #DD8042",
"8. c #E08650",
"9. c #E4BC5A",
"0. c #FAC73F",
"q. c #EAD466",
"w. c #F7E36D",
"e. c #DCE28D",
"r. c #E2E991",
"t. c #EDF697",
"y. c #F4FF9B",
"u. c None",
/* pixels */
"u.u.u.u.7 7 7 7 7 7 7 7 7 7 7 7 7 7 7 7 7 7 7 7 7 7 7 7 7 7 7 7 7 7 7 7 7 7 7 7 7 7 7 7 7 7 u.u.u.u.",
"u.u.u.u.7 7 7 7 7 7 7 7 7 7 7 7 7 7 7 7 7 7 8 8 7 7 7 7 7 7 7 7 7 7 7 7 7 7 7 7 7 7 7 7 7 7 u.u.u.u.",
"u.u.7 7 p ....T T ^ ..................T T ( ..) T T ) ..( T T T T T T T T T T T T T T T T y 6 7 u.u.",
"u.u.7 7 j 8.8.%.$.-.8.8.8.8.8.8.8.8.8.$.$.-.8.;.$.$.;.8.-.$.$.$.$.$.$.$.$.$.$.$.$.$.$.$.$.s 7 7 u.u.",
"7 7 y s F ;.;.#.@.&.;.;.;.;.;.;.;.;.;.#.@.&.;.=.@.@.=.;.&.@.@.@.@.@.@.@.@.@.@.@.@.@.@.@.@.D s y 8 7 ",
"7 7 T $.O.[ [ [ ' [ [ [ [ [ [ [ [ [ [ [ [ ' ' ' [ [ [ [ [ [ [ _ ' ' ' [ [ [ [ [ ' ' ' ' ' O.$.T 7 7 ",
"7 7 T $.@.[ [ [ ' ' [ [ [ [ [ [ [ [ [ [ [ [ ' ' [ [ [ [ [ [ [ [ ' ' [ [ [ [ [ [ ' ' ' ' ' @.$.T 7 7 ",
"7 7 T $.@.[ [ p 8 : X X X X X X X X X X X X @ @ O O X X X X X X X X X X X X X X * w a ' ' @.$.T 7 7 ",
"7 7 T $.@.' ' q 7 % . . . . . . . . . . . . . . . . . . . . . . . . . . + . . . % 7 w ' [ @.$.T 7 7 ",
"7 7 T $.@.' ' 3 $ % % % % % % % : 5 5 5 5 5 5 5 5 5 5 5 > % % % % % % * 5 7 % % $ $ : ' [ @.$.T 7 7 ",
"7 7 T $.@.' ' O . $ 7 7 7 6 7 7 i H H H H H H G H H H H g 7 7 7 7 7 7 w H H 7 7 $ . O ' [ @.$.T 7 7 ",
"7 7 T $.@.' ' O . $ 7 7 w w 8 7 w H H H H H I I I I H H g 7 7 7 7 8 8 p H H 8 7 $ . o [ [ @.$.T 7 7 ",
"7 7 T $.@.' ' O . $ 7 8 ' ' a 7 i H H H H Q [ [ ' ' I H g 7 7 7 7 k H H H H 8 7 $ . o [ [ @.$.T 7 7 ",
"7 7 T $.@.' ' O . $ 7 w ' ' a 7 w H H H H Q [ [ ' ' I H g 7 7 7 7 k H H H H 8 7 $ . o [ [ @.$.T 7 7 ",
"7 7 T $.@.' [ O . 3 V V _ _ a 7 i H H ~ ` o.@.@.+.@._ ~ B 7 7 V k V H G G H V V : . o [ [ @.$.T 7 7 ",
"7 7 T $.X.[ [ @ . 3 V I ' _ a 7 i H H _ [ X.$.$.$.$.[ [ B 7 7 H H H H H H H G H 4 . o [ [ @.$.T 7 7 ",
"7 7 T X.o.[ [ O . 4 H I ' ' k p k K K o.o.@.$.$.$.$.W ' K p p U K K U U H H H H 5 . O ' ' X.X.! 7 7 ",
"7 7 B ' [ [ [ O . 4 H H ' ' P H U ' ' +.$.$.$.$.$.$.[ ' Q H I ' [ [ [ ~ H H H H 4 . O ' ' ' ' B 7 7 ",
"7 7 B ' [ [ [ O . 4 G H [ [ U H U ' ' $.$.$.$.$.$.$.W ' Q V I ' ' ' [ ~ H H V H 4 . O ' ' ' ' B 7 7 ",
"7 7 B ' [ [ [ O . + & < $.$.P H U ' [ $.$.$.$.$.$.$.[ ' B 7 8 +.%.o.[ [ ' [ I H 4 . O ' ' ' ' B 7 7 ",
"6 6 B _ [ [ [ * . # & 1 $.$.P H U ' [ +.$.$.$.$.$.$.[ ' B 7 8 $.+.o.' [ ' ' I H 4 . O ' ' ' ' B 7 7 ",
"# X M _ [ [ [ O . n ,.>.u u v H U [ ' $.$.$.$.$.$.$.W ' K k k $.$.@.X.o.' ' H H 4 . O ' ' ' ' M @ # ",
". . d _ [ [ [ O . :.y.r.& & h H U [ ' +.$.$.$.$.$.$.[ [ Q H H $.$.$.$.@.' ' I F 4 . O ' _ ' _ M . . ",
". . M [ [ [ [ O . | w.q.z z s g F [ ' +.$.$.$.$.$.$.W [ Q K P $.$.$.$.@.' ' I B 4 . O ' _ _ _ M . . ",
". . M ' ' ' ' O . A 3.4.4.4.z & q [ ' $.$.$.$.$.$.$.o.' [ ' [ $.$.$.$.@.' ' I H 4 . o [ [ [ ' 0 . . ",
". . M ' _ _ ' O . A 4.4.4.4.z & w [ ' $.$.$.$.$.$.$.[ ' [ [ [ $.$.$.$.X.' ' I H 4 . o [ ' [ _ M . . ",
". . q B U _ ' O . l $.+.< < g G U ' ' +.$.$.$.$.$.$.o.' Q H I +.$.$.$.@.' ' H H 4 . o [ [ I H y . . ",
". . q V K ' ' O . 0 $.O.& & g H U ' ' $.$.$.$.$.$.$.[ ' Q H I +.$.$.$.@.' ' I H 5 . o [ ' K H q . . ",
". . q V U [ ' O . = c c Z Z S H U ' ' $.$.$.$.$.$.$.o.' Q V I +.$.$.+.E B G g j - . o [ ' U H q . . ",
". . p H U [ ' $ . + & < $.$.^ H U ' ' $.$.$.$.$.$.$.' ' Q B I $.$.$.$.R i i i i ; . o [ ' I H q . . ",
". . q V I ` ` @ . # < 5 $.$.P H U ' ' @.@.$.$.$.@.+.o.' Q H I $.$.E E / m m v v 3 . @ ~ ` I H q . . ",
". . q B H H H # . , H H $.$.P H U ' ' ' ' X.$.@.' ' ' ' Q H H %.$.S i } y.y.5.4.A . @ H H H H q . . ",
". . r H H H H @ . 4 H I $.$.P H K [ [ [ [ X.$.#.' [ ' ' Q H B %.$.S i } y.y.5.4.A . @ H H H H q . . ",
". . q H H H H @ . , H H [ [ K H U [ [ [ [ [ o.[ [ ' ' ' Q H I [ [ v i } y.y.5.4.A . @ H H H H q . . ",
". . r G H H H @ . 4 H I [ [ I H U [ [ [ [ [ ' [ ' [ ' ' Q H H [ [ V i } y.y.5.4.A . # G H H H q . . ",
". . r H H H H @ . 4 I H [ [ U H U [ [ [ [ [ [ [ [ ' ' ' Q H H ' [ s 2 m 9.9.2.1.C . @ H H H H q . . ",
". . q H H H H @ . 4 H I ' ' U H U [ [ [ ' [ [ [ [ [ [ ' Q H H ' [ r & e $.$.$.$.9 . + H H H H q . . ",
". . 5 G G H H + . 4 H H ' ' U H U [ [ [ [ [ [ ' ' [ [ [ Q I I ' [ p ; t O.O.O.O.9 . @ H H G V q . . ",
". . ; 7 w H H @ . 4 H I ' ' I H U [ [ [ [ [ [ ' [ ' [ ' [ [ [ [ [ ] ' J & & & & # . # H H w 7 * . . ",
". + ; 7 w H H X . 4 H H ' ' U H U [ [ [ ' [ [ [ [ [ [ [ [ [ [ [ ' [ ] J & & & & + . # H H w 7 * . . ",
". . ; 7 w H H # . 4 H H I U I H U [ ' [ ' ' [ ' [ [ [ [ [ ' [ [ [ ' [ ` J J h h > . @ H H w 7 * . . ",
". . % 7 w G G @ . 4 H H H H H H U [ [ ' ' [ ' [ [ ' ' [ [ [ ' [ ' [ ' ' [ [ I G 4 . @ H H w 7 * . . ",
". . % 7 8 k k + . : g h P U V h B ' ' [ ' [ [ ' [ [ [ [ [ [ [ [ ' ' ' ' [ [ I H 3 . + k h 8 7 * . . ",
". . % 7 7 7 7 + . + & 1 _ ' g 7 k ' ' ' [ ' ' [ [ ' [ ' ' [ ' [ ' ' ' ' [ [ H H 4 . + 7 7 7 7 * . . ",
". . * 7 7 7 7 + . X % 1 ' _ g 7 k [ [ [ ' [ ' ' ' [ ' [ ' ' ' ' ' ' ' ' ' ' H H 4 . + 6 7 7 7 * . . ",
". . * 7 7 7 7 + X  .t.e.1 1 j B B ' [ [ [ ' ' [ ' ' [ [ ' ' ' ' ' ' ' ' ' ' I H 4 . + 7 7 7 7 * . . ",
". . * 7 7 7 7 + .  .y.r.& & g V Q ' [ ' [ [ [ [ ' ' ' ' ' ' _ ' ' ' ' ' ' [ I H 4 . + 6 7 7 7 * . . ",
". . * 7 7 7 2 + . Y 9.6.{ { g w k ' [ [ ' [ ' [ ' ' ' ' ' ' _ U Q ` ' ` K K H G 4 . + 6 7 7 7 % . . ",
". . * 7 7 7 7 + . A 3.4.4.4.z & q ' ' ' ' ' [ [ [ [ [ ' ' ' ' H H ~ ' Q H H H H 3 . + 7 7 7 7 * . . ",
". . * 7 7 7 7 + . C 3.3.<.<.x & p ~ ` ' ' ' ' [ ' [ [ [ ` ` ~ G V U ` Q H H H V 3 . + 7 7 7 7 * . . ",
". . * 7 7 7 7 . . 0 $.O.& & < 7 i H G ' ' [ [ [ ' [ [ _ Q H V 7 7 j H H H H H H 3 . + 6 7 7 7 * . . ",
". . * 7 7 7 7 + . 0 $.O.& & 2 7 i H H ' ' [ ' [ ' [ [ [ Q H H 7 7 k H H H H H H 4 . + 7 7 7 7 * . . ",
". . * 7 7 7 7 + + # 2 7 k v 8 7 i H H I I Q _ _ [ ' U I H H V 8 7 k V B H H w 8 % . + 7 7 7 7 * . . ",
". . * 7 7 7 6 + . # & 1 H H i 7 i G H H F Q ' _ ' [ I H H H V 7 7 j H H I V 8 7 $ . + 7 7 7 7 * . . ",
". . % 7 7 7 7 + . # 2 2 H H i 7 8 g p H H U Q Q Q Q I H V g p 7 7 k H G g g 7 7 # . + 3 7 7 7 * . . ",
". . * 7 7 7 7 + . # 7 8 H V w 7 7 7 7 H H H H H V I V H j 7 7 7 7 j B j 7 7 7 7 # . + 7 7 7 7 * . . ",
". . * 7 7 7 6 + . # 1 6 k k 8 3 2 6 2 k k V k V k V k V i 2 2 2 2 g V g 2 2 2 2 $ . + 6 7 7 7 * . . ",
". . * 7 7 7 7 + . + . . . . . . . . . . . . . . . . . . . . . . . . . . . . . . . . + 6 7 7 7 * . . ",
". . * 7 7 7 7 + . . . . . . . . . . . . . . . . . . . . . . . . . . . . . . . . . . + 7 7 7 7 * . . ",
". . * 6 2 + @ . . . . . . . . . . . . . . . . . . . . . . . . + . . . . . . . . . . . @ + 2 7 * . . ",
". . * 7 1 . . . u.u.u.u.u.u.u.u.u.u.u.u.u.u.u.u.u.u.u.u.u.u.u.u.u.u.u.u.u.u.u.u.u.u.. . . 1 7 * . . ",
". . # * % . . . u.u.u.u.u.u.u.u.u.u.u.u.u.u.u.u.u.u.u.u.u.u.u.u.u.u.u.u.u.u.u.u.u.u.. . . $ * # . . ",
"u.u.. . . u.u.u.u.u.u.u.u.u.u.u.u.u.u.u.u.u.u.u.u.u.u.u.u.u.u.u.u.u.u.u.u.u.u.u.u.u.u.u.u.. . . u.u.",
"u.u.. . . u.u.u.u.u.u.u.u.u.u.u.u.u.u.u.u.u.u.u.u.u.u.u.u.u.u.u.u.u.u.u.u.u.u.u.u.u.u.u.u.. . . u.u."
};
