/* XPM */
static char *_3f549b85cdc466cc3a2da7e179f31da8LBM2S79sLNAWvWK[] = {
/* columns rows colors chars-per-pixel */
"80 48 36 1 ",
"  c None",
". c #23101D",
"X c #131327",
"o c #3A2032",
"O c #481E29",
"+ c #542833",
"@ c #623436",
"# c #282F56",
"$ c #5C2553",
"% c #1F5347",
"& c #E42D38",
"* c #8B4335",
"= c #B95027",
"- c #D1690A",
"; c #FF7D00",
": c #B56C4E",
"> c #B77655",
", c #CA405D",
"< c #CE5174",
"1 c #36B33D",
"2 c #1A9556",
"3 c #FFA200",
"4 c #E08650",
"5 c #D7936A",
"6 c #D7A370",
"7 c #89DD47",
"8 c #FFDD42",
"9 c #D2628A",
"0 c #7C85B9",
"q c #EF878D",
"w c #F4ABB0",
"e c #FFD996",
"r c #F8CFD2",
"t c #FFEDCE",
"y c #D2DFED",
"u c #FFFCFD",
/* pixels */
"                OOOOOOOOOOOOOOOOOOOOOOOOOOOOOOOOOOOOOOOO            ++++++++    ",
" ..          .. O-============-OO-====================-O           +---4-44-+   ",
".4-+........+4-.O==============OO======================O          +-========-+  ",
".==+444--4--+==.O-============-OO-====================-O          +-=++++++=-+  ",
".==+========+==.O-=============OO-====================-O          +=+00--00+=+  ",
".*=+*======*+=*.O-=============OO-=====================O          +*+00==00+*+  ",
".**+**====**+**.O-============-OO-====================-O          +*+++==+++*+  ",
".**##########**.O=============-OO-====================-O          +*+=*==*=+*+  ",
".##yuuuuuuuuy##.O-============-OO-====================-O          +*+******+*+  ",
".y#yuuuuuuuuy#y.O-============-OO-====================-O          .*+++**+++*.  ",
".y0yuuuuuuuuy0y.O-============-OO--4--444444444444--44-O          .*.00**00.*.  ",
".y0yyyyyyyyyy0y.O-============-O.**********************.          .*.00**00.*.  ",
".y0$$$$$$$$$$0y.O-============-O.**********************.          .+*......*+.  ",
".y$<wwrwrrrw9$y.O-============-O........................           .++++++++.   ",
".$9wwwrwrrrwr<$.O-============-O.++.                .++.            ........    ",
".9rwwwrwrrrwrw9.O-============-O.*+.                .+*.                        ",
".,q&&&q&qqq&q&,.O-============-O.**.                .**.            ++++++++    ",
".,q&&&q&qqq&q&,.O-============-O.**.                .**.           +---4-44-+   ",
".,q&&&q&qqq&q&,.O-============-O...                  ...          +-========-+  ",
".,q&&&q&qqq&q&,.O-============-O                                  +-=++++++=-+  ",
".,q&&&q&qqq&q&,.O-============-O                                  +=+  --  +=+  ",
".9rwwwrwrrrwrw9.O-============-O                                  +*+  ==  +*+  ",
".99wwwrwrrrwr<9.O--4-444444-44-O                                  +*+++==+++*+  ",
"...<<<9<999<9....**************.                                  +*+=*==*=+*+  ",
".--..........--..**************.                                  +*+******+*+  ",
".==+--------+==.................                                  .*+++**+++*.  ",
".*=+********+=*..++.        .++.                                  .*.  **  .*.  ",
".**.+******+.**..*+.        .+*.                                  .*.  **  .*.  ",
".+*.++****++.*+..**.        .**.                                  .+*......*+.  ",
".++..........++..**.        .**.                                   .++++++++.   ",
".++.        .++....          ...                                    ........    ",
"...          ...                                                                ",
"                                     @@@@@                                      ",
"                                    @>>>>>@                                     ",
"                  XXXXXXXXXXXX     >t@@@@@e@                                    ",
"                 X:55:555::5::X    >ttttete@                                    ",
"                 X*oooooooooo*X   >teeeeeeee@                                   ",
"                 X*o77%%7777o*X   >teeeeeeee@                                   ",
"    OOOOOOOO     X*o77%2%777o*X  @teeeeeeeeee@                                  ",
"   O========O    X*o7===2==7o*X  @6eeeeeeeee6@                                  ",
"  O-========-O   X*o=8=83=3=o*X   @6eeeeeee6@                                   ",
"  O*-44444-4*O   X*o=;=;;=;=o*X    @@@@@@@@@                                    ",
"  O**********O   X*o=;=;;=;=o*X       ooo                                       ",
"   O********O    X*o1======1o*X       ooo                                       ",
"    .o....+.     X*oooooooooo*X      oo@oo                                      ",
"    .******.     X@@@@@@@@@@@@X     o@o@o@o                                     ",
"    .*oooo*.      XXXXXXXXXXXX      o@***@o                                     ",
"    oo    oo                         ooooo                                      "
};
