/* XPM */
static char *_8135f7d52b24c5ccd3d576d4b707c7fvrf8WnXcm1UnOhF8[] = {
/* columns rows colors chars-per-pixel */
"80 48 38 1 ",
"  c None",
". c #1A1017",
"X c #131327",
"o c #3E1537",
"O c #3A2032",
"+ c #623436",
"@ c #2A2A47",
"# c #282F56",
"$ c #1F5347",
"% c #8B3615",
"& c #B0183E",
"* c #983A28",
"= c #E42D38",
"- c #8B4335",
"; c #B95027",
": c #D1690A",
"> c #FF7D00",
", c #BA285C",
"< c #902A66",
"1 c #B56C4E",
"2 c #C0735A",
"3 c #F25663",
"4 c #FF737A",
"5 c #108F34",
"6 c #55C63C",
"7 c #1A9556",
"8 c #1DAA45",
"9 c #FFA200",
"0 c #D7936A",
"q c #89DD47",
"w c #FFDD42",
"e c #CFFD55",
"r c #7C85B9",
"t c #FFA69D",
"y c #FFD285",
"u c #FFD19D",
"i c #D2DFED",
"p c white",
/* pixels */
"   $$$$                               $$$$ @$$@         $               $$$$    ",
"  $$qq$@                              $qq$@qqq@        $8$ @@         $$    $$@ ",
"  $q$$8@@OOOO          OOOOOO         $q5Xq855@      $@@8@@8X         $  $  $e8@",
"   OOO@8@;>w>O       OO;;;+:*O         $5X55@@@     $88@$@$@X         $$$  $ee8@",
"  O>;;O@@;ww9>O     O**;*:;;;*O       O;;;X@@$X    oX@$8$88@<X   $$       $eeq8X",
" O>9>;;;;>;99>>O   O**;:::;*;*O      O99>;+X$$X   o44@8$XX$8@<X  $e$$$$$$$eeqq8X",
"O>w9;>>;>99;9>>O  .**;:::;+;**.     +;9>;;+.XX    o44@$X<,X$@<X  @8eqqqqqeqqqq8X",
"O9w>ww9ww99>>>>O  .*;*::*;;**+.     +999>;+.     o,44@@<==,@@,<X  @8eeeqqqqqq8X ",
"O>9>ww9w999>;>;O .+*;::+;;**+*O    +;>9;;;+.     o,=444=4444=,<X   @8qqqqqq88XX ",
"O>;>99>>999>+;;. .+*+:;;***+*+.    +999>;;.      o,==4=4444=,<,X    @X88888XX@X ",
"O;;>>9>>>9>>O;+. .++:;****+++.     +9>;>;+.      X,========,<<,o      XXXXX$$@X ",
".;+>>>;>>>>;+++. .++****++++.     +99>>;+.        X,,=====,<<,o  $$  @@$$$$$$X  ",
".+O;>>+;>>;;O+.   .**++++*+.      O>;>;+O         X<<,,,,,<<<,o  $q$$88q88$$$X  ",
" .+O;;+;;;;+O.     O++++++.       O9>;+O           X<<<<<<<,,o   @8qqqq888$$X   ",
"  ..+;;+;;++.       ......        O;;+.             Xo,,,,,oo     @888888$@X    ",
"    ..OOOO..                      OO..                ooooo        @@@@@@@      ",
"                                                                                ",
"                                                                                ",
"   O++++++++O      O++++++++O      O++++++++O      @$$$$$$$$@      O++++++++O   ",
"  O:yyy9yy99:O    O1uuu0uu001O    O:yyy9yy99:O    @6eeeqeeqq6@    O1uuu0uu001O  ",
"  O+:999999:+O    O+10000001+O    O+:999999:+O    @$6qqqqqq6$@    O+10000001+O  ",
"  O;+:9999:+;O    O-+100001+-O    O;+:9999:+;O    @7$6qqqq6$7X    O-+100001+-O  ",
"  .:;+::::+;:.    .1-+1111+-1.    .:;+::::+;:.    X67$6666$76X    .1-+1111+-1.  ",
"  .:9:++++:9:.    .101++++101.    .:9:++++q@:.    X6q6$$$$6q6X    .101++++101.  ",
"  .:99$q8:99:.    .1001OOOO01.    .:99:$@5@@:.    X6qqoooo6q6X    .1001111$01.  ",
"  .:99OO8O99:.    .100O;:;;O1.    .:99+9>@5$:.    X6qo@88@oq6X    .100000$$01.  ",
"  .:9O9>;>O9:.    .10O;:*;*O1.    .:9+9>;O99:.    X6qo,@@,oq6X    .10000$q@01.  ",
"  .:9O>9;9O9:.    .10O+;**+O1.    .:O>>;+999:.    X6qo====oq6X    .100$$q8@01.  ",
"  .:9O;>;>O9:.    .10O**++O01.    .:O>;+9999:.    X6qo<,,<oq6X    .10@qq8@001.  ",
"  .;99OOOO99;.    .-00OOOO00-.    .;9OO99999;.    X7qqooooqq7X    .-0@@@@000-.  ",
"   .OO++++OO.      .OO++++OO.      .OO++++OO.      X@@$$$$@@X      .OO++++OO.   ",
"                                                                                ",
"                       @@@@                                                     ",
"   +++#  ###         $$e$$@               ooo                                   ",
"  +000i# #p#        $ee7qq@        Xoo   otttoo                                 ",
" +02220p#rip#      $eq$eq7@       X4t3o o=tttt=o                                ",
"+022200priipX     $7q$qq7@@$$$$$ X4ttt3o&4tt3tto                                ",
"+02200ppppppX     @7$qq7@7ee777@ X4tttt4&3434tto                                ",
"#i000pppppiiX     @$@77@ee77qq7@ ottt3=3&3=4tt4o                                ",
"#rippiiip#iirX    X$@$@eq7eeq77@ otttt3%%%%444=o                                ",
" X#riii###ppr#X   X@$@eq7eqqq7$@ ottt3=&99&&&Xoo                                ",
"  X######ipi###X  X@X7q$eqqq7$$@  o44=&=&&===oX                                 ",
"   X###iipi###rX  XX77$eqqq7$$@   @oX&=33&333=o                                 ",
"    X#riii###rrX   X7$77777$$@    @qqX44433t44X                                 ",
"     X#rriirrrrX  X@$$77$$$@@    @qq77X4tt3tt4X                                 ",
"      X#rrrrrrX   X@@$@XX@@      @q77@X4ttttto                                  ",
"       X#rrrrX    X@$XX          @@@@  otttto                                   ",
"        XXXXX     XXX                   oooo                                    "
};
