/* XPM */
static char *_5d949f4dfd149c7d779257ff28be1f3WltrDP10fFf5ylNo[] = {
/* columns rows colors chars-per-pixel */
"64 64 31 1 ",
"  c #A5C543",
". c #030309",
"X c #131327",
"o c #251127",
"O c #4B1010",
"+ c #46242C",
"@ c #582F28",
"# c #623436",
"$ c #1E1E45",
"% c #2A2A47",
"& c #3D3B58",
"* c #464B67",
"= c #801B1B",
"- c #8A1B1B",
"; c #842B2B",
": c #8B4335",
"> c #B56C4E",
", c #BD7549",
"< c #E1786D",
"1 c #E07870",
"2 c #E09E68",
"3 c #606AD8",
"4 c #8A9CB8",
"5 c #EDA48E",
"6 c #FFC380",
"7 c #FDCBB0",
"8 c #FFE9A6",
"9 c #D98EFF",
"0 c #FFEDDF",
"q c #FCFDFC",
"w c white",
/* pixels */
"                                                                ",
"                                                                ",
"                                                                ",
"                                     ooo                        ",
"                                     o::o                       ",
"                                      o#:o                      ",
"                                       o+#o  @@@@               ",
"                               oooooooooo+o@@2266@              ",
"                           oooo######++,,oo,2@@@@@              ",
"                         oo:::::####+,,,,,,@@@                  ",
"                       oo##::#++oooo@@,222222@@                 ",
"                      o######:::##+,,,@@2262668@                ",
"                     o#>###:::###+,22222@6662668@               ",
"                     o>::::::###+,222222626666688@              ",
"                    o>>:::::###+222222266666668888@             ",
"                    o>>>:::::::2666666666866888888@             ",
"                   o>>>>>>>:o::26666666888866888888@            ",
"                   o>>>>>>##o>888866888888882688668@            ",
"                   o>::>>#oo>>888@228888866682666668@           ",
"                  o+::::#o5o:6662@@@266666666,666666@           ",
"                  o+#::#o55o:6662@55@26666666,266666@           ",
"                  o+#::o577o:662@5775@2666666@,66666@           ",
"                  o+#::oOOOo#222@5OOOOOO666662@66666@           ",
"                  o+#:o5777o#222@577775@O66662@66666@           ",
"                  o+#:o5777o#,22@5777775@26662@66666@           ",
"                  o+#:o....5o#,2@5......5@6662@66626@           ",
"                 oo+:o......o#,2@........@2662@==622@           ",
"                o#o+:.4.Xqq.5o#,@54.Xqq...2662@55=222@          ",
"               o##o+:o4.XXX.75o,,@4.XXXX.@2662@55=,22@          ",
"             oo###o+:o4.%XX.775o,@4.%XX$.@2662@55=,222@@@       ",
"             o###+o+:oq.3XX.7775o@q.3XX$.@2262@55=,,222,@       ",
"              oo++o+:oqq.99.777777q.399.5@222@555=,,,,,@        ",
"                ooo+#o<qq..50007775q...5<@222@55=2@,,@@         ",
"                   o#o<5<5<50007775<55<5<@222@5=22@@@           ",
"                   o#o=5<5<7;777777<55<5<@222@=222@             ",
"                   o#o=55577777777775555@222@,222,@             ",
"                   o+#o=7777777777777775@222@,22,@              ",
"                    o#o=7777;77777777775@22@@,2,,@              ",
"                    o+#o=7777;;77777777@22,@@,,,@               ",
"                     o+o =777777777777@@2,@ @,@@                ",
"                     o+o  =777777777==@2,@= @@                  ",
"                      o+o  =-77777==11@,@1=                     ",
"                       oo    =====<<1@,@15=                     ",
"                                =1<<1@@155=                     ",
"                             XXXX111111555XXXXXX                ",
"                           =X%%%X11115577X%%%%%%XX==            ",
"                          =1X&&&X1555777X%&&&&&%%X55=           ",
"                         =1X%**&$X77777X&****&&%X5775=          ",
"                         =1X&***&X7777X&******&X577775=         ",
"                        =51X&****&XXXX&*******&X577775=         ",
"                        =5X%******&&&&*******&X5777775=         ",
"                       =55X&*****************&X5777775=         ",
"                       =55X&****************&X57777775=         ",
"                      =55X%*****************&X57777775=         ",
"                      =55X&****************&X577777775=         ",
"                     =555X&****************&X577777775=         ",
"                     =555X&***************&X577777775=          ",
"                    =5555X&***************&X577777775=          ",
"                    =5555X&***************&X577777775=          ",
"                   =55551X&**************&X577777775=           ",
"                   =55551X&**************&X577777775=           ",
"                  =555511X&&*************&X577777775=           ",
"                  =5555111X&************&X577777775=            ",
"                 =55551111X&************&X577777775=            "
};
