/* XPM */
static char *_d018298ffba4672bdf9984380c0d64ajJ42RDtrcImuXTu1[] = {
/* columns rows colors chars-per-pixel */
"80 96 25 1 ",
"  c None",
". c #3E1537",
"X c #3A2032",
"o c #623436",
"O c #2A2A47",
"+ c #1F5347",
"@ c #82332C",
"# c #E42D38",
"$ c #8B4335",
"% c #984D3F",
"& c #B95027",
"* c #D1690A",
"= c #FF7D00",
"- c #BA285C",
"; c #B56C4E",
": c #FF737A",
"> c #108F34",
", c #1DAA45",
"< c #FFA200",
"1 c #D7936A",
"2 c #89DD47",
"3 c #FFDD42",
"4 c #CFFD55",
"5 c #FFD19D",
"6 c #FFFCFD",
/* pixels */
"                                                                 >>>>> >>2,+OO  ",
"                                 >>> >+   ++     >>> >+  &&&o    >2222+>2,O,,O  ",
"                                 >2>>>2+++,+     >2>>>2+&&<<o    +O,,,,+OXXXX,O ",
"    ;;;                          >22222,O+,+O    >22222o<<o<<oo   OOOOOOX&<<<XO ",
"   ;665$                         >22+2,,OO++O    >22+2,o<<ooo*o   X3<<&33<&<<<X ",
"  ;6555$            ,,,   ,,+   OO,,2+,,OO>>++O OO,,2+,,o&oo**o  X3<=&3<<<<&<==X",
"  ;5555$  ;;        ,22+ ,22+   O,,,,,+,O>222,+ O,,,,,+,Oo***o+  X3<&3<<<<<=o==X",
"  ;555$  ;65;       ,2,,+2,,O    O,,,,+,O+22,,,O O,,,,+,O+ooo,,O X<=o3=<<<==o==X",
"   $$$   ;655$       +,,+,,O      OOO,OO>2+,,,,+  OOO,OO>2+,,,,+ X<=o3=====&o=&X",
"     ;;$ ;555$        ++OOO          O+>222+,,O+     O+>222+,,O+ X&=o<=====&o&&X",
"    ;65$ ;555$          O           ++O>2,,2+,O     ++O>2,,2+,O  X&=&o&===&&o&&X",
"   ;655$  $$$           O           O+ OO,,,,+O     O+ OO,,,,+O  X&&&o&&&&&oo&&X",
"   ;555$                O           O+  O,,++OO     O+  O,,++OO   X&&o&&&&&o&&X ",
"   ;55$                 O            ++ OOO+         ++ OOO+     O>222o&&&2222,O",
"    $$                                                           OOO,,+XX22,,+OO",
"                                                                    O,,OO,,++O  ",
"                                                                        OO      ",
"                                                         OO            O+O  OOOO",
"                                                        O+O       >>> O++OOO,,,O",
"                                   OO            >>>>> O++O       >22+OOOO,,,OO ",
"                                   O+OO  >++     >2222O++OO++     ++,22OO+OOO   ",
"  $$$                             >OO++OO2,,O     ++,,2OO2,,,+     ++,,2O+O     ",
"  $1;o   $$                       >22O+++2,O        +,,O2,OO++   >>>>+,,OOOOOOO ",
"  $1;o  $1;o                       +,2OO2,O          +,,,O       +222>O,OO22,2,O",
"   oo   $1;o       >>     +O        +,2+,O         ++O,,O         ++22,O+2,,+OOO",
"         o;o       >2++ ++,O         +,,O          +,,O,O           +,,O+,,+O   ",
"      $$  o        >22,+,,,O          +,O           +,,,O            +,,O,+O    ",
"     $1;o           +,,,,,O           +,O            +,,O             +OOOO     ",
"     $1;o            ++,OO            +,O            +,,O             o<=&o     ",
"      oo               O              +,O            +,,O            o<===&o    ",
"                                                                                ",
"                                                                                ",
"                                                            >+        OOO  >++  ",
"                                                      OOO  >2+   >>>  O++OO2,O  ",
"   oooX                                     >>O  >>>  O++OO2,O   >22O O+++2,,+++",
"  o$;;$X                                OOOO22+  >22O O+++,,,+++ >2,,OO++,,,+2,O",
" o$;;;$X                         >>>>   O++O2,+  >2,,OO++,,,+2,O +,,,O2,O+++2,OO",
" o;;;$$X  oooo                   O222>  O+O+,,+  +,,,O2,O+++2,OO  OO+2,,OO+,,++O",
" X$$$$$X o$;;;X                  O,,,2OOO+O,,OOO  OO+2,,OO+,,++O>>>O+,+OOOO+++OO",
"  XXXXX  o;;;;$X                  O,,,OOOOO,O2,O>>>O+,+OOOO+++OO>222++O2,+OOOOO ",
"         o;;;$$X   >>    >+O     >>++,+OOO++2,,O>222++O2,+OOOOO +++,,+2,,OO+,,,O",
"  oooo    X$$$X    >2+  >2,O     >222+++OO+,,,O +++,,+2,,OO+,,,O >2,+O,+OO+,,,OO",
" o$;;;XX   XXX     >2,O >2,O     +,,,2++O++++O   >2,+O,+OO+,,,OO +,+OO+O O+OOOO ",
" o;;;;$$X          +,,O +,O       OOOO,OO++O     +,+OO+O O+OOOO  ++O O+O O+O    ",
" o;;;$$$X           ++O OO           +,O +,O     ++O O+O O+O        $;;@X%%@X   ",
"  X$$$$X              O O            +,+ +,+         O+O O+O       $;$;$@X%$@X  ",
"   XXXX                                                                         ",
"                                                                                ",
"                                                                                ",
"                                                   ++     ++       ++     ++    ",
"                                                  +22++  ++2+     +22++..++2+   ",
"                                                  ++,+,+ +2O++++  ++,+,+#.2O++++",
"                                   +++             +++,O OO+,,++   +++,O-.O+,,++",
"   $$o                             +22++  ++++    +22+,OOOOOO++   +22+,OOOOOO++ ",
"   $1o   $$$                       +,,,,+O2,,+     +,,OOO+22+    .-+,,OOO+22+-. ",
"   o;o  $11o                        ++,+O2,,+       +++O+,,++++  .:-+++O+,,++++ ",
"    oo  o;o        +++   +++        +2,,O,,+       +2,,OO,+22,+   .+2,,OO,+22,+ ",
"        oo         +22+ +22+       +2,,OOOO       +2,++OOO,,++    +2,OOOOO,,++  ",
"    $$o             O,,+,,O        ++OOO+O        +++  O+O++      OOO---.O++    ",
"    $1;o             OO+OO             O+O             O+O          .:##.O      ",
"     ooo               O               +,+             +,+           ...,+      ",
"                       +               +,+             +,+             +,+      ",
"                                                                                ",
"                                                                                ",
"                                                                                ",
"                                                                                ",
"                                                                                ",
"                                                                                ",
"                                                         +O              +O     ",
"                                                        ++O             ++O     ",
"                                                       ++OO   ++       ++OO   ++",
"                                                  +    +OOO ,+2+  +    +OOO ,+2+",
"                                                  ++,,,OOO,,422+  ++,,,OOO,,422+",
"                                                  +,444,O,442,+   +,444,O,442,OO",
"                                                   +,224,,22,+     O,224,,22,O,O",
"                                                    +,22,,,++     +2O,22,,,OOO2O",
"                                                     +,,,++       +2OO,,,OO,OO2O",
"                                       ,              ++,O         +O,OO,O O  O ",
"                                      ,4+              O2O   ++     +2+O2O   ++ ",
"                                      +2++++     +     O2OOO+++  +   + O2OOO+++ ",
"                                  ,,,++,+42+     ++,,, +2OO+++O  ++,,, +2OO+++O ",
"                                  +44,++2,,+     +4444,+,,,OOO   +4444,+,,,OOO  ",
"                                   +22,+,,+      +,2224,2442O    +,2224,2442O   ",
"         $$o                        +,2+++        +,,,,,,2242O    +,,,,,,2242O  ",
"        $11o                         +++           ++++O,,,22+     +OOOO,,,22+  ",
"    $$o o$;o                           + ++++++        O2O+,,,+     O,OO2OO,,,+ ",
"   $11o  o$o        ,,,            ++++++,422,+        +2O ++++     +2++2O+OOO+ ",
"   $1;o   oo        ,44,         ++,,42+,422,+     ,,  +2O         ,,+ +2O+,O,O ",
"   o;o              +,22,       +,,442,+,,,,+      +4,,+2O         +4,,+2O+2OO  ",
"   oo                +,2+       ++++2,,+++++       +,442,O         +,442,O O    ",
"       $$oo           +,+           ++++           ++,22,OO++      ++,22,OO++   ",
"      $1;$o            ++              +             +++,OOO++       +++,OOO++  ",
"      o$$o              +              +               +,O             +,O      ",
"       oo               +              +               +,O             +,O      ",
"                                                                                ",
"                                                                                "
};
