/* XPM */
static char *porta_aberta[] = {
/* columns rows colors chars-per-pixel */
"56 64 118 2",
"   c black",
".  c #23101D",
"X  c #26111E",
"o  c #29131F",
"O  c #2B131E",
"+  c #3B1A1E",
"@  c #3F1C1F",
"#  c #2C1421",
"$  c #2D1521",
"%  c #2F1622",
"&  c #341821",
"*  c #371A21",
"=  c #341824",
"-  c #361925",
";  c #3B1B22",
":  c #3B1F23",
">  c #3D1C26",
",  c #3C1C28",
"<  c #411C1F",
"1  c #411D1E",
"2  c #431F1C",
"3  c #401E2A",
"4  c #452119",
"5  c #44201A",
"6  c #4F2D17",
"7  c #4E2B1A",
"8  c #4E2E19",
"9  c #4B2123",
"0  c #4B2326",
"q  c #482725",
"w  c #482727",
"e  c #4C2426",
"r  c #4A232E",
"t  c #4D2430",
"y  c #4B3032",
"u  c #4C3F36",
"i  c #512627",
"p  c #532624",
"a  c #5F2921",
"s  c #542833",
"d  c #592A31",
"f  c #5A2B33",
"g  c #612E2B",
"h  c #692E25",
"j  c #6D2F21",
"k  c #6B332C",
"l  c #6C3128",
"z  c #6D352A",
"x  c #6F362A",
"c  c #6F352E",
"v  c #643033",
"b  c #683030",
"n  c #6A3233",
"m  c #773422",
"M  c #7D3623",
"N  c #7D3722",
"B  c #7C3624",
"V  c #7C382E",
"C  c #703A38",
"Z  c #7A3A33",
"A  c #7C3B34",
"S  c #734134",
"D  c #5E5441",
"F  c #833D1A",
"G  c #803826",
"H  c #833926",
"J  c #8D3E2C",
"K  c #823E34",
"L  c #874116",
"P  c #8B4511",
"I  c #94481F",
"U  c #955C0D",
"Y  c #864222",
"T  c #84432F",
"R  c #8B4335",
"E  c #8E4433",
"W  c #90402B",
"Q  c #9E4425",
"!  c #9E452A",
"~  c #9D482F",
"^  c #924532",
"/  c #944532",
"(  c #935537",
")  c #94563B",
"_  c #9E5C3E",
"`  c #A74929",
"'  c #B14D29",
"]  c #B24E28",
"[  c #B44E28",
"{  c #B95027",
"}  c #BA5125",
"|  c #A7670B",
" . c #A66C13",
".. c #C65D16",
"X. c #C75F15",
"o. c #C35A1A",
"O. c #C45B19",
"+. c #CC640F",
"@. c #C96112",
"#. c #CA6211",
"$. c #CB6310",
"%. c #CE681B",
"&. c #D1690A",
"*. c #D46E18",
"=. c #D27131",
"-. c #D5753C",
";. c #DA7A34",
":. c #D77A47",
">. c #868259",
",. c #A09F68",
"<. c #E28E03",
"1. c #FFA200",
"2. c #FEAA0D",
"3. c #DD8042",
"4. c #DE8349",
"5. c #E08650",
"6. c #F4FF9B",
"7. c None",
/* pixels */
"s s C 5.5.;.&.&.;.5.5.5.5.5.5.5.5.5.5.;.&.&.;.5.5.*.&.&.5.5.:.&.&.&.&.&.&.&.&.&.&.&.&.&.&.&.&.&.&.&.H d s s 7.7.",
"s s C 5.5.;.&.&.;.5.5.5.5.5.5.5.5.5.5.;.&.&.;.5.5.*.&.&.5.5.;.&.&.&.&.&.&.&.&.&.&.&.&.&.&.&.&.&.&.&.H s s s 7.7.",
"x x T :.:.=.$.$.=.:.:.:.:.:.:.:.:.:.:.=.X.+.=.:.:.%.X.+.:.:.-.X.%.$.$.$.$.$.$.$.X.+.+.X.+.+.$.X.+.+.I x x s s s ",
"&.&.+.{ { { { { { { { { { { { { { { { { } } } } } } } } } } } { } { { { { { { { } } } { } } } } } { #.&.&.z s s ",
"&.&.+.{ { { { { { { { { { { { { [ } } { } } } } { { { { { { { { { { { { { { { { } } { { } [ } } } } @.&.&.k s s ",
"&.&.+.{ { ` J J G m m m m m m m m m m m m m m m m m m m m m m m m m m m m m m m m m m m B J J ! [ } ..&.&.z s s ",
"&.&.+.{ { W s s - . . . . . . . . . . . . . . . . . . . . . . . . . . . . . . . . . . . # s s V { { @.&.&.z s s ",
"&.&.+.{ { W s s - . . . . . . . . . . . . . . . . . . . . . . . . . . . . . . . . . . . # s s V { { ..&.&.z s s ",
"&.&.+.{ { G = - S _ _ : . . . . . . . . . . . . . . . . . . . . . . . . . . . . . . . . . = = h { { ..&.&.z s s ",
"&.&.+.{ { M . . ) 5.5.w . . . . . . . . . . . . . . . . . . . . . . . . . . . . . . . . . . . a { [ @.&.&.z s s ",
"&.&.+.{ { M . . ) 5.5.w . . . . . . . . . . . . . . . . . . . . . . . . . . . . . . . . . . . a { { ..&.&.z s s ",
"&.&.+.{ { M . . ) 5.5.w . . . . . . . . . . . . . . . . . . . . . . . . . . . . . . . . . . . a { { @.&.&.z s s ",
"&.&.+.{ { M . . ) 5.4.w . . . . . . . . . . . . . . . . . . . . . . . . . . . . . . . . . . . a { { ..&.&.k s s ",
"&.&.+.{ { M . . ) 4.4.w . . . . . . . . . . . . . . . . . . . . . . . . . . . . . . . . . . . a { { X.&.&.x s s ",
"&.&.+.{ { M . . P &.&.4 . . . . . . . . . . . . . . . . . . . . . . . . . . . . . . . . . . . a { { X.&.&.x s s ",
"&.&.+.{ { M . . P &.&.4 . . . . . . . . . . . . . . . . . . . . . . . . . . . . . . . . . . . h { { X.&.&.x s s ",
"@.@...{ { M . . P &.&.4 . . . . . . . . . . . . . . . . . . . . . . . . . . . . . . . . . . . a { { o.@.@.k s s ",
"{ { { { { M . . P &.&.2 . . . . . . . . . . . . . . . . . . . . . . . . . . . . . . . . . . . a { { { { { b s s ",
"{ { { { { M . . P &.&.2 . . . . . . . . . . . . . . . . . . . . . . . . . . . . . . . . . . . a { { { { { b s s ",
"{ { { { { M . . F ....2 . . . . . . . . . . . . . . . . . . . . . . . . . . . . . . . . . . . a { { { { { b s s ",
"{ { { { { M . . M } } @ . . . . . . . . . . . . . . . . . . . . . . . . . . . . . . . . . . . a { { { { { b s s ",
"{ { { { { M . . M } } @ . . . . . . . . . . . . . . . . . . . . . . . . . . . . . . . . . . . a { { { { { b s s ",
"{ { { { { M . . F +.+.2 . . . . . . . . . . . . . . . . . . . . . . . . . . . . . . . . . . . a { { { { { 9 % % ",
"{ { { { { M . . P &.&.4 . . . . . . . . . . . . . . . . . . . . . . . . . . . . . . . . . . . a { { { { { 1 . . ",
"{ { { { { M . . P &.&.4 . . . . . . . . . . . . . . . . . . . . . . . . . . . . . . . . . . . a { { { { { 1 . . ",
"{ { { { { M . . M { { 1 . . . . . . . . . . . . . . . . . . . . . . . . . . . . . . . . . . . a { { { { { 1 . . ",
"{ { { { { M . . m { { 1 . . . . . . . . . . . . . . . . . . . . . . . . . . . . . . . . . . . a { { { { { 1 . . ",
"] ] ] { { M . . j Q ` + . . . . . . . . . . . . . . . . . . . . . . . . . . . . . . . . . . . a { { [ ] ] ; . . ",
"R R / { { M . . . . . . . . . . . . . . . . . . . . . . . . . . . . . . . . . . . . . . . . . a { { ~ R R * . . ",
"R R / { { M . . . . . . . . . . . . . . . . . . . . . . . . . . . . . . . . . . . . . . . . . a { { ~ R R * . . ",
"R R ^ { { M . . + w 0 O . . . . . . . . . . . . . . . . . . . . . . . . . . . . . . . . . . . a { { ~ R R * . . ",
"R R / { { M . . g R R ; . . . . . . . . . . . . . . . . . . . . . . . . . . . . . . . . . . . a { { ~ R R * . . ",
"R R ^ } } N . . g R R * . . . . . . . . . . . . . . . . . . . . . . . . . . . . . . . . . . . a { { ~ R R * . . ",
"R R R ~ ~ l . . g R R * . . . . . . . . . . . . . . . . . . . . . . . . . . . . . . . . . . . p ~ ~ ^ R R * . . ",
"R R R R R g . . g R R * . . . . . . . . . . . . . . . . . . . . . . . . . . . . . . . . . . . e R R R R R * . . ",
"R R R R R g . . g R R * . . . . . . . . . . . . . . . . . . . . . . . . . . . . . . . . . . . e R R R R R * . . ",
"R R R R R g . . g R R * . . . . . . . . . . . . . . . . . . . . . . . . . . . . . . . . . . . e R R R R R ; . . ",
"R R R R R g . . g R R * . . . . . . . . . . . . . . . . . . . . . . . . . . . . . . . . . . . e R R R R R * . . ",
"R R R R R g . . g R R * . . . . . . . . . . . . . . . . . . . . . . . . . . . . . . . . . . . e R R R R R * . . ",
"R R R R R g . . g R R * . . . . . . . . . . . . . . . . . . . . . . . . . . . . . . . . . . . e R R R R R * . . ",
"R R R R R g . . g R R * . . . . . . . . . . . . . . . . . . . . . . . . . . . . . . . . . . . e R R R R R * . . ",
"A A Z c c i . . g R R + . . . . . . . . . . . . . . . . . . . . . . . . . . . . . . . . . . . e R R K A Z & . . ",
"s s r . . . . . g E R * . . . . . . . . . . . . . . . . . . . . . . . . . . . . . . . . . . . e R R n s s % . . ",
"s s r . . . . . d R R * . . . . . . . . . . . . . . . . . . . . . . . . . . . . . . . . . . . e R R b s s # . . ",
", , y >.>.D . . g R R * . . . . . . . . . . . . . . . . . . . . . . . . . . . . . . . . . . . e R R n s s # . . ",
". . u 6.6.,.. . g R R + . . . . . . . . . . . . . . . . . . . . . . . . . . . . . . . . . . . e R R n s s # . . ",
". . u 6.6.,.. . g E R * . . . . . . . . . . . . . . . . . . . . . . . . . . . . . . . . . . . e R R n s s # . . ",
". . u 6.6.,.. . d R R * . . . . . . . . . . . . . . . . . . . . . . . . . . . . . . . . . . . > v v f s s # . . ",
". . u 6.6.,.. . d E R * . . . . . . . . . . . . . . . . . . . . . . . . . . . . . . . . . . . - s s s s s # . . ",
". . u 6.6.,.. . d E R * . . . . . . . . . . . . . . . . . . . . . . . . . . . . . . . . . . . - s s s s s # . . ",
". . 8 2.2. .. . h R R * . . . . . . . . . . . . . . . . . . . . . . . . . . . . . . . . . . . - s s s s s # . . ",
". . 6 1.1.| . . g R R * . . . . . . . . . . . . . . . . . . . . . . . . . . . . . . . . . . . - s s s s s # . . ",
"O # 7 <.<.U . . g R R * . . . . . . . . . . . . . . . . . . . . . . . . . . . . . . . . . . . - s s s s s % . . ",
"s s r . . . . . g R R * . . . . . . . . . . . . . . . . . . . . . . . . . . . . . . . . . . . - s s s s s # . . ",
"s s r . . . . . g R R * . . . . . . . . . . . . . . . . . . . . . . . . . . . . . . . . . . . - s s s s s # . . ",
"s s r = = # . . g R R * . . . . . . . . . . . . . . . . . . . . . . . . . . . . . . . . . . . - s s s s s # . . ",
"s s s s s 3 . . g R R * . . . . . . . . . . . . . . . . . . . . . . . . . . . . . . . . . . . - s s s s s # . . ",
"s s s s s 3 . . g R R * . . . . . . . . . . . . . . . . . . . . . . . . . . . . . . . . . . . - s s s s s # . . ",
"s s s s s 3 . . g R R * . . . . . . . . . . . . . . . . . . . . . . . . . . . . . . . . . . . - s s s s s # . . ",
"s s s s s 3 . . g R R * . . . . . . . . . . . . . . . . . . . . . . . . . . . . . . . . . . . - s s s s s # . . ",
"s s s s s 3 . . g R R * . . . . . . . . . . . . . . . . . . . . . . . . . . . . . . . . . . . - s s s s s # . . ",
"s s s s s 3 . . g R R * . . . . . . . . . . . . . . . . . . . . . . . . . . . . . . . . . . . - s s s s s # . . ",
"s s s s s 3 . . g R R * . . . . . . . . . . . . . . . . . . . . . . . . . . . . . . . . . . . - s s s s s # . . ",
"s s s s s 3 . . g R R * . . . . . . . . . . . . . . . . . . . . . . . . . . . . . . . . . . . - s s s s s # . . "
};
