/* XPM */
static char * porta_aberta_xpm[] = {
"64 64 524 2",
"  	c None",
". 	c #542833",
"+ 	c #663336",
"@ 	c #BA6D47",
"# 	c #E28751",
"$ 	c #DE8349",
"% 	c #D8772F",
"& 	c #D16A0F",
"* 	c #E08650",
"= 	c #E08751",
"- 	c #DB7C3F",
"; 	c #D36C13",
"> 	c #D16909",
", 	c #D36D1D",
"' 	c #DE834B",
") 	c #DA7E49",
"! 	c #D4712E",
"~ 	c #D16906",
"{ 	c #D1690A",
"] 	c #CE670D",
"^ 	c #974622",
"/ 	c #662E2E",
"( 	c #552832",
"_ 	c #572932",
": 	c #572A32",
"< 	c #683435",
"[ 	c #BA6D46",
"} 	c #E18650",
"| 	c #DE8248",
"1 	c #D8762F",
"2 	c #DF8550",
"3 	c #DF854F",
"4 	c #D16910",
"5 	c #DA7C3E",
"6 	c #D26C13",
"7 	c #D0680A",
"8 	c #D26C1D",
"9 	c #DE824B",
"0 	c #DB7E40",
"a 	c #D47024",
"b 	c #D06809",
"c 	c #D1690C",
"d 	c #D1690B",
"e 	c #D0680B",
"f 	c #CD670D",
"g 	c #984722",
"h 	c #662E2F",
"i 	c #562932",
"j 	c #552933",
"k 	c #7A3B29",
"l 	c #7A3C29",
"m 	c #84422C",
"n 	c #BA663D",
"o 	c #D77947",
"p 	c #D47640",
"q 	c #CF6D2C",
"r 	c #CA6315",
"s 	c #D67846",
"t 	c #D57846",
"u 	c #CF6C2D",
"v 	c #C86018",
"w 	c #CB6315",
"x 	c #D06D2C",
"y 	c #D67947",
"z 	c #D27138",
"A 	c #CB6419",
"B 	c #C86015",
"C 	c #CC661D",
"D 	c #D47642",
"E 	c #D4753E",
"F 	c #CC6829",
"G 	c #C96217",
"H 	c #CC6519",
"I 	c #CA6213",
"J 	c #CA6212",
"K 	c #C96114",
"L 	c #CB6312",
"M 	c #CB6311",
"N 	c #C96213",
"O 	c #A44F1D",
"P 	c #834026",
"Q 	c #793B29",
"R 	c #6C342D",
"S 	c #CB660F",
"T 	c #C96312",
"U 	c #C15B23",
"V 	c #BC542B",
"W 	c #BC542A",
"X 	c #BB5328",
"Y 	c #BB5226",
"Z 	c #BC552B",
"` 	c #BB542B",
" .	c #BB5327",
"..	c #BB5224",
"+.	c #BC5324",
"@.	c #BC5426",
"#.	c #BC5528",
"$.	c #BD5529",
"%.	c #BC5427",
"&.	c #BB5324",
"*.	c #BC5325",
"=.	c #BC5529",
"-.	c #BB5225",
";.	c #BB5325",
">.	c #C45D18",
",.	c #CA6410",
"'.	c #CD670E",
").	c #AA551E",
"!.	c #63302E",
"~.	c #CE660D",
"{.	c #C2591F",
"].	c #B95027",
"^.	c #B74F27",
"/.	c #B64F27",
"(.	c #B54E27",
"_.	c #B24D27",
":.	c #B34E26",
"<.	c #B64F25",
"[.	c #B54F25",
"}.	c #B54E26",
"|.	c #B54F26",
"1.	c #B34E27",
"2.	c #B44E27",
"3.	c #B75026",
"4.	c #B85025",
"5.	c #B95125",
"6.	c #C65E17",
"7.	c #CF670D",
"8.	c #D36A08",
"9.	c #AE571D",
"0.	c #632F2E",
"a.	c #B44E28",
"b.	c #A2472A",
"c.	c #8F3F2C",
"d.	c #8D3E2C",
"e.	c #853A27",
"f.	c #7D3623",
"g.	c #7A3522",
"h.	c #873B29",
"i.	c #93402B",
"j.	c #A3472A",
"k.	c #BA5125",
"l.	c #C45B19",
"m.	c #CE660E",
"n.	c #AF571C",
"o.	c #64302D",
"p.	c #AE4C28",
"q.	c #8A3D2C",
"r.	c #5F2C32",
"s.	c #592A32",
"t.	c #472028",
"u.	c #361820",
"v.	c #31151D",
"w.	c #31151E",
"x.	c #361720",
"y.	c #4E242C",
"z.	c #5A2A33",
"A.	c #672F31",
"B.	c #8D3F2C",
"C.	c #BA5126",
"D.	c #C65D18",
"E.	c #AE4B28",
"F.	c #863B2C",
"G.	c #512731",
"H.	c #432029",
"I.	c #3C1F23",
"J.	c #3B1F21",
"K.	c #331A20",
"L.	c #25111D",
"M.	c #23101D",
"N.	c #28121F",
"O.	c #44202B",
"P.	c #512732",
"Q.	c #5F2C31",
"R.	c #C45B1A",
"S.	c #BA5027",
"T.	c #AA4A27",
"U.	c #773426",
"V.	c #3E1C25",
"W.	c #3D1D27",
"X.	c #6B3C31",
"Y.	c #94563B",
"Z.	c #A15E3E",
"`.	c #804A34",
" +	c #321921",
".+	c #2F1622",
"++	c #351925",
"@+	c #492025",
"#+	c #7F3726",
"$+	c #B95126",
"%+	c #A94926",
"&+	c #733122",
"*+	c #2F141E",
"=+	c #854D36",
"-+	c #C87749",
";+	c #DE8550",
">+	c #AF6741",
",+	c #3A1E23",
"'+	c #24101D",
")+	c #22101E",
"!+	c #3B1A1F",
"~+	c #793423",
"{+	c #B75027",
"]+	c #C55D18",
"^+	c #723122",
"/+	c #2E141D",
"(+	c #32191F",
"_+	c #884E37",
":+	c #CC7A4A",
"<+	c #E38851",
"[+	c #B36A42",
"}+	c #3A1F23",
"|+	c #210F1D",
"1+	c #3A191E",
"2+	c #793422",
"3+	c #B26941",
"4+	c #874E37",
"5+	c #E2864D",
"6+	c #B1683D",
"7+	c #3B1F24",
"8+	c #874D35",
"9+	c #CA7643",
"0+	c #E08347",
"a+	c #B0663B",
"b+	c #C45C1A",
"c+	c #65312D",
"d+	c #30161D",
"e+	c #804019",
"f+	c #C06217",
"g+	c #D56D16",
"h+	c #A85518",
"i+	c #391B1B",
"j+	c #200F1D",
"k+	c #3B191E",
"l+	c #66312D",
"m+	c #CD650E",
"n+	c #C1591F",
"o+	c #30161C",
"p+	c #7F3F14",
"q+	c #BF600C",
"r+	c #D46A09",
"s+	c #A75312",
"t+	c #391B1A",
"u+	c #3F1B1F",
"v+	c #7E3625",
"w+	c #D26909",
"x+	c #C86014",
"y+	c #C75E16",
"z+	c #BF5621",
"A+	c #381B1B",
"B+	c #C1581E",
"C+	c #CA6113",
"D+	c #A85021",
"E+	c #632F2F",
"F+	c #BA5226",
"G+	c #B95127",
"H+	c #A75313",
"I+	c #37191C",
"J+	c #BC5225",
"K+	c #9D452A",
"L+	c #612D31",
"M+	c #7F3E15",
"N+	c #BE5F0D",
"O+	c #D3690B",
"P+	c #A65214",
"Q+	c #9C442B",
"R+	c #2F151D",
"S+	c #78381B",
"T+	c #B55518",
"U+	c #C95E17",
"V+	c #9E4A19",
"W+	c #37191D",
"X+	c #733221",
"Y+	c #AB4B24",
"Z+	c #BD5324",
"`+	c #954122",
" @	c #35181E",
".@	c #AC4B23",
"+@	c #BE5424",
"@@	c #964222",
"#@	c #5F2C30",
"$@	c #522732",
"%@	c #B95914",
"&@	c #CE6411",
"*@	c #A24E17",
"=@	c #BA5127",
"-@	c #964126",
";@	c #441E24",
">@	c #331823",
",@	c #321823",
"'@	c #BF5F0D",
")@	c #D36A0A",
"!@	c #A65312",
"~@	c #944024",
"{@	c #37191E",
"]@	c #24111D",
"^@	c #7E3E15",
"/@	c #BD5E10",
"(@	c #D2690E",
"_@	c #A55114",
":@	c #944023",
"<@	c #36181E",
"[@	c #BE5426",
"}@	c #964122",
"|@	c #36191D",
"1@	c #B85027",
"2@	c #2D131D",
"3@	c #6D2F21",
"4@	c #A64825",
"5@	c #933F23",
"6@	c #943F24",
"7@	c #B04D29",
"8@	c #B54F28",
"9@	c #2A131D",
"0@	c #612A20",
"a@	c #8E3D23",
"b@	c #A14627",
"c@	c #823824",
"d@	c #31161E",
"e@	c #B14D29",
"f@	c #B14E29",
"g@	c #8C3D26",
"h@	c #321720",
"i@	c #8F4434",
"j@	c #944532",
"k@	c #AB4C2C",
"l@	c #BB5127",
"m@	c #38171E",
"n@	c #3D1A1E",
"o@	c #35161E",
"p@	c #A54A2D",
"q@	c #904434",
"r@	c #73362D",
"s@	c #301620",
"t@	c #8B4335",
"u@	c #914433",
"v@	c #AA4B2C",
"w@	c #27121E",
"x@	c #28131E",
"y@	c #26111E",
"z@	c #A34A2E",
"A@	c #914533",
"B@	c #8C4335",
"C@	c #70352D",
"D@	c #904433",
"E@	c #3A1A1F",
"F@	c #4A2525",
"G@	c #502828",
"H@	c #441F23",
"I@	c #29121E",
"J@	c #AA4C2C",
"K@	c #AA4926",
"L@	c #29131E",
"M@	c #572928",
"N@	c #7C3C31",
"O@	c #894234",
"P@	c #6E342D",
"Q@	c #8F4433",
"R@	c #A94C2C",
"S@	c #A84925",
"T@	c #713222",
"U@	c #592A29",
"V@	c #803D32",
"W@	c #8D4435",
"X@	c #773323",
"Y@	c #B64F28",
"Z@	c #A2492E",
"`@	c #974631",
" #	c #9F492F",
".#	c #91422D",
"+#	c #642D26",
"@#	c #2B131E",
"##	c #35181F",
"$#	c #682F26",
"%#	c #9B472E",
"&#	c #9E482F",
"*#	c #954631",
"=#	c #8D4434",
"-#	c #813E32",
";#	c #5A2A28",
">#	c #220F1D",
",#	c #5E2D29",
"'#	c #8A4234",
")#	c #8D4335",
"!#	c #8C4435",
"~#	c #5D2C29",
"{#	c #884234",
"]#	c #71362E",
"^#	c #8A4235",
"/#	c #894235",
"(#	c #7E3D32",
"_#	c #582928",
":#	c #30161F",
"<#	c #8A4335",
"[#	c #6F352D",
"}#	c #7B3A34",
"|#	c #793A33",
"1#	c #733730",
"2#	c #6E342E",
"3#	c #66302C",
"4#	c #4A2225",
"5#	c #71352D",
"6#	c #32161E",
"7#	c #833F34",
"8#	c #7D3B34",
"9#	c #7A3A34",
"0#	c #622E2C",
"a#	c #2E1520",
"b#	c #582A33",
"c#	c #532730",
"d#	c #3F1D26",
"e#	c #2E151E",
"f#	c #2D151F",
"g#	c #28121E",
"h#	c #823E31",
"i#	c #8E4435",
"j#	c #733733",
"k#	c #5E2D33",
"l#	c #4A232C",
"m#	c #2B1420",
"n#	c #4D2530",
"o#	c #3F282A",
"p#	c #342B26",
"q#	c #322725",
"r#	c #2A1B21",
"s#	c #23111D",
"t#	c #53272D",
"u#	c #7F3D34",
"v#	c #703532",
"w#	c #5A2A32",
"x#	c #46212C",
"y#	c #291320",
"z#	c #3D1C28",
"A#	c #3D1D28",
"B#	c #46292E",
"C#	c #78714E",
"D#	c #91905F",
"E#	c #848157",
"F#	c #5B523E",
"G#	c #291A20",
"H#	c #723633",
"I#	c #5B2B33",
"J#	c #27131F",
"K#	c #3E2D2D",
"L#	c #BDC379",
"M#	c #F0FB99",
"N#	c #D8E08A",
"O#	c #8F8D5D",
"P#	c #342A25",
"Q#	c #3D2D2D",
"R#	c #C2C97C",
"S#	c #F7FF9D",
"T#	c #DEE78E",
"U#	c #92915F",
"V#	c #352B26",
"W#	c #311720",
"X#	c #5C2B29",
"Y#	c #864034",
"Z#	c #874135",
"`#	c #703533",
" $	c #22101D",
".$	c #2C1420",
"+$	c #482229",
"@$	c #653033",
"#$	c #663133",
"$$	c #562933",
"%$	c #52272E",
"&$	c #803D33",
"*$	c #70352E",
"=$	c #29131F",
"-$	c #3E1D28",
";$	c #542832",
">$	c #552833",
",$	c #3D2C2C",
"'$	c #C3C577",
")$	c #F8FD97",
"!$	c #DFE288",
"~$	c #938E5C",
"{$	c #352A25",
"]$	c #54272D",
"^$	c #813D32",
"/$	c #532732",
"($	c #3E241C",
"_$	c #CA8D29",
":$	c #FFB532",
"<$	c #E7A22D",
"[$	c #986723",
"}$	c #361F1D",
"|$	c #2A121E",
"1$	c #5E2A25",
"2$	c #823D31",
"3$	c #3F221A",
"4$	c #C97F0D",
"5$	c #FFA301",
"6$	c #E69204",
"7$	c #985D11",
"8$	c #361D1C",
"9$	c #2F1520",
"0$	c #311622",
"a$	c #42231E",
"b$	c #B16E12",
"c$	c #DF8C05",
"d$	c #C97E08",
"e$	c #855112",
"f$	c #321A1C",
"g$	c #47212C",
"h$	c #4D252E",
"i$	c #4D2A24",
"j$	c #502E1B",
"k$	c #492A1C",
"l$	c #351D1C",
"m$	c #4E2530",
"n$	c #381A26",
"o$	c #24111E",
"p$	c #401E29",
"q$	c #361925",
"r$	c #341824",
"s$	c #2C1421",
"t$	c #532833",
"u$	c #4D2430",
"v$	c #3A1B27",
"w$	c #25111E",
"x$	c #4F2530",
"y$	c #3C1C28",
". . + @ # $ % & & % $ * * * * * * * * * * $ % & & % $ = - ; > , ' * ) ! ~ { { { { { { { { { { { { { { { { { { { ] ^ / ( . .     ",
"_ : < [ } | 1 & & 1 | 2 3 3 3 3 3 3 3 3 2 | 1 4 & 1 | * 5 6 7 8 9 3 0 a b c d d d d d d d e e d d e e { d e e { f g h i j .     ",
"k l m n o p q r r q p s t t t t t t t t s p u v w x p y z A B C D s E F G H I J J J J J J K B L L B I M L K B L N O P Q R j . . ",
"S S T U V W X Y Y X W Z Z Z Z Z Z Z ` V Z W  ...+.@.#.$.%.&...*.=.$.#. .-.;.Y Y Y Y Y Y Y -...+.&.-...&.&.&...&.+.>.,.'.).!.. . ",
"{ { ~.{.].].^././.(.(.(.(.(.(.(.(.(._.:.<.[.}.<.<.<.<.|.}.}.}.}.}.}.}.(.(.}.(.(.(.(.(.(.(.}.<.[.}.(.<.1.2.3.4.5...6.7.8.9.0.. . ",
"{ { ~.{.].a.b.c.d.e.f.g.g.g.g.g.g.g.g.g.g.g.g.g.g.g.g.g.g.g.g.g.g.g.g.g.g.g.g.g.g.g.g.g.g.g.g.g.g.g.f.h.d.i.j.a.k.l.m.8.n.o.. . ",
"{ { ~.{.].p.q.r.s.t.u.v.v.v.v.v.v.v.v.v.v.v.v.v.v.v.v.v.v.v.v.v.v.v.v.v.v.v.v.v.v.v.v.v.v.v.v.v.v.w.x.y.z.A.B./.C.D.7.8.n.o.. . ",
"{ { ~.{.].E.F._ G.H.I.J.K.L.M.M.M.M.M.M.M.M.M.M.M.M.M.M.M.M.M.M.M.M.M.M.M.M.M.M.M.M.M.M.M.M.M.M.M.M.N.O.P.Q.q./.C.R.m.8.n.o.. . ",
"{ { ~.{.S.T.U.V.W.X.Y.Z.`. +M.M.M.M.M.M.M.M.M.M.M.M.M.M.M.M.M.M.M.M.M.M.M.M.M.M.M.M.M.M.M.M.M.M.M.M.M..+++@+#+/.$+R.m.8.n.o.. . ",
"{ { ~.{.S.%+&+*+K.=+-+;+>+,+'+M.M.M.M.M.M.M.M.M.M.M.M.M.M.M.M.M.M.M.M.M.M.M.M.M.M.M.M.M.M.M.M.M.M.M.M.'+)+!+~+(.{+]+7.8.n.o.. . ",
"{ { ~.{.S.%+^+/+(+_+:+<+[+}+'+M.M.M.M.M.M.M.M.M.M.M.M.M.M.M.M.M.M.M.M.M.M.M.M.M.M.M.M.M.M.M.M.M.M.M.M.M.|+1+2+(.$+R.m.8.n.o.. . ",
"{ { ~.{.S.%+^+/+(+_+:+<+3+}+'+M.M.M.M.M.M.M.M.M.M.M.M.M.M.M.M.M.M.M.M.M.M.M.M.M.M.M.M.M.M.M.M.M.M.M.M.M.|+1+2+(.C.D.7.8.n.o.. . ",
"{ { ~.{.S.%+^+/+(+4+:+5+6+7+'+M.M.M.M.M.M.M.M.M.M.M.M.M.M.M.M.M.M.M.M.M.M.M.M.M.M.M.M.M.M.M.M.M.M.M.M.M.|+1+2+(.C.R.m.8.9.0.. . ",
"{ { ~.{.S.%+^+/+(+8+9+0+a+,+'+M.M.M.M.M.M.M.M.M.M.M.M.M.M.M.M.M.M.M.M.M.M.M.M.M.M.M.M.M.M.M.M.M.M.M.M.M.|+1+2+(.C.b+m.8.n.c+. . ",
"{ { ~.{.S.%+^+/+d+e+f+g+h+i+'+M.M.M.M.M.M.M.M.M.M.M.M.M.M.M.M.M.M.M.M.M.M.M.M.M.M.M.M.M.M.M.M.M.M.M.M.M.j+k+~+(.C.b+m.8.n.l+. . ",
"e e m+n+S.%+^+/+o+p+q+r+s+t+'+M.M.M.M.M.M.M.M.M.M.M.M.M.M.M.M.M.M.M.M.M.M.M.M.M.M.M.M.M.M.M.M.M.M.M.M.M.j+u+v+/.C.b+m.w+n.c+. . ",
"x+x+y+z+S.%+^+/+o+p+q+r+s+A+'+M.M.M.M.M.M.M.M.M.M.M.M.M.M.M.M.M.M.M.M.M.M.M.M.M.M.M.M.M.M.M.M.M.M.M.M.M.j+k+~+(.C.B+y+C+D+E+. . ",
"F+F+C.G+S.%+^+/+o+p+q+r+H+I+'+M.M.M.M.M.M.M.M.M.M.M.M.M.M.M.M.M.M.M.M.M.M.M.M.M.M.M.M.M.M.M.M.M.M.M.M.M.|+1+2+(.].C.C.J+K+L+. . ",
"].].].].S.%+^+/+o+M+N+O+P+I+'+M.M.M.M.M.M.M.M.M.M.M.M.M.M.M.M.M.M.M.M.M.M.M.M.M.M.M.M.M.M.M.M.M.M.M.M.M.|+1+2+(.].].].S.Q+L+. . ",
"].].].].S.%+^+/+R+S+T+U+V+W+'+M.M.M.M.M.M.M.M.M.M.M.M.M.M.M.M.M.M.M.M.M.M.M.M.M.M.M.M.M.M.M.M.M.M.M.M.M.|+1+2+(.].].].S.Q+L+. . ",
"].].].].S.%+^+/+/+X+Y+Z+`+ @'+M.M.M.M.M.M.M.M.M.M.M.M.M.M.M.M.M.M.M.M.M.M.M.M.M.M.M.M.M.M.M.M.M.M.M.M.M.|+1+2+(.].].].S.Q+L+. . ",
"].].].].S.%+^+/+/+X+.@+@@@ @'+M.M.M.M.M.M.M.M.M.M.M.M.M.M.M.M.M.M.M.M.M.M.M.M.M.M.M.M.M.M.M.M.M.M.M.M.M.|+1+2+(.].].].S.Q+#@$@$@",
"].].].].S.%+^+/+R+S+%@&@*@I+'+M.M.M.M.M.M.M.M.M.M.M.M.M.M.M.M.M.M.M.M.M.M.M.M.M.M.M.M.M.M.M.M.M.M.M.M.M.|+1+2+(.].].].=@-@;@>@,@",
"].].].].S.%+^+/+o+M+'@)@!@A+'+M.M.M.M.M.M.M.M.M.M.M.M.M.M.M.M.M.M.M.M.M.M.M.M.M.M.M.M.M.M.M.M.M.M.M.M.M.|+1+2+(.].].].=@~@{@L.]@",
"].].].].S.%+^+/+d+^@/@(@_@A+'+M.M.M.M.M.M.M.M.M.M.M.M.M.M.M.M.M.M.M.M.M.M.M.M.M.M.M.M.M.M.M.M.M.M.M.M.M.|+1+2+(.].].].=@:@<@'+M.",
"].].].].S.%+^+/+/+X+Y+[@}@|@'+M.M.M.M.M.M.M.M.M.M.M.M.M.M.M.M.M.M.M.M.M.M.M.M.M.M.M.M.M.M.M.M.M.M.M.M.M.|+1+2+(.].].].=@:@<@'+M.",
"1@1@1@].S.%+^+/+2@3@4@S.5@<@'+M.M.M.M.M.M.M.M.M.M.M.M.M.M.M.M.M.M.M.M.M.M.M.M.M.M.M.M.M.M.M.M.M.M.M.M.M.|+1+2+(.].].1@S.6@<@'+M.",
"7@7@7@8@S.%+^+/+9@0@a@b@c@d@M.M.M.M.M.M.M.M.M.M.M.M.M.M.M.M.M.M.M.M.M.M.M.M.M.M.M.M.M.M.M.M.M.M.M.M.M.M.|+1+2+(.].a.e@f@g@h@M.M.",
"i@i@j@k@l@%+^+/+'+2@m@n@o@]@M.M.M.M.M.M.M.M.M.M.M.M.M.M.M.M.M.M.M.M.M.M.M.M.M.M.M.M.M.M.M.M.M.M.M.M.M.M.|+1+2+(.1@p@j@q@r@s@M.M.",
"t@t@u@v@l@%+^+/+M.L.w@x@y@M.M.M.M.M.M.M.M.M.M.M.M.M.M.M.M.M.M.M.M.M.M.M.M.M.M.M.M.M.M.M.M.M.M.M.M.M.M.M.|+1+2+(.1@z@A@B@C@s@M.M.",
"t@t@D@v@l@%+^+/+L.E@F@G@H@I@M.M.M.M.M.M.M.M.M.M.M.M.M.M.M.M.M.M.M.M.M.M.M.M.M.M.M.M.M.M.M.M.M.M.M.M.M.M.|+1+2+(.1@z@A@B@C@s@M.M.",
"t@t@u@J@l@K@^+/+L@M@N@O@P@h@M.M.M.M.M.M.M.M.M.M.M.M.M.M.M.M.M.M.M.M.M.M.M.M.M.M.M.M.M.M.M.M.M.M.M.M.M.M.|+1+2+(.1@z@A@B@C@s@M.M.",
"t@t@Q@R@$+S@T@/+L@U@V@W@C@s@M.M.M.M.M.M.M.M.M.M.M.M.M.M.M.M.M.M.M.M.M.M.M.M.M.M.M.M.M.M.M.M.M.M.M.M.M.M.|+1+X@1.Y@Z@D@B@C@s@M.M.",
"t@t@t@`@ #.#+#@#L@U@V@W@C@s@M.M.M.M.M.M.M.M.M.M.M.M.M.M.M.M.M.M.M.M.M.M.M.M.M.M.M.M.M.M.M.M.M.M.M.M.M.M.|+##$#%#&#*#=#B@C@s@M.M.",
"t@t@t@B@W@-#;#L@L@U@V@W@C@s@M.M.M.M.M.M.M.M.M.M.M.M.M.M.M.M.M.M.M.M.M.M.M.M.M.M.M.M.M.M.M.M.M.M.M.M.M.M.>#h@,#'#)#B@t@!#C@s@M.M.",
"t@t@t@t@B@V@U@L@L@U@V@W@C@s@M.M.M.M.M.M.M.M.M.M.M.M.M.M.M.M.M.M.M.M.M.M.M.M.M.M.M.M.M.M.M.M.M.M.M.M.M.M.>#h@~#{#t@t@t@!#C@s@M.M.",
"t@t@t@t@B@V@U@L@L@U@V@W@C@s@M.M.M.M.M.M.M.M.M.M.M.M.M.M.M.M.M.M.M.M.M.M.M.M.M.M.M.M.M.M.M.M.M.M.M.M.M.M.>#h@~#{#t@t@t@!#]#h@M.M.",
"t@t@t@t@B@V@U@L@L@U@V@W@C@s@M.M.M.M.M.M.M.M.M.M.M.M.M.M.M.M.M.M.M.M.M.M.M.M.M.M.M.M.M.M.M.M.M.M.M.M.M.M.>#h@~#{#t@t@t@!#C@s@M.M.",
"t@t@t@t@B@V@U@L@L@U@V@W@C@s@M.M.M.M.M.M.M.M.M.M.M.M.M.M.M.M.M.M.M.M.M.M.M.M.M.M.M.M.M.M.M.M.M.M.M.M.M.M.>#h@~#{#t@t@t@!#C@s@M.M.",
"t@t@t@t@B@V@U@L@L@U@V@W@C@s@M.M.M.M.M.M.M.M.M.M.M.M.M.M.M.M.M.M.M.M.M.M.M.M.M.M.M.M.M.M.M.M.M.M.M.M.M.M.>#h@~#{#t@t@t@!#C@s@M.M.",
"^#^#^#/#^#(#_#L@L@U@V@W@C@:#M.M.M.M.M.M.M.M.M.M.M.M.M.M.M.M.M.M.M.M.M.M.M.M.M.M.M.M.M.M.M.M.M.M.M.M.M.M.>#h@~#{#t@<#^#t@[#s@M.M.",
"}#}#|#1#2#3#4#w@L@U@V@W@5#6#M.M.M.M.M.M.M.M.M.M.M.M.M.M.M.M.M.M.M.M.M.M.M.M.M.M.M.M.M.M.M.M.M.M.M.M.M.M.>#h@~#{#t@7#8#9#0#a#M.M.",
"b#b#c#d#e#f#g#M.L@U@h#i#C@:#M.M.M.M.M.M.M.M.M.M.M.M.M.M.M.M.M.M.M.M.M.M.M.M.M.M.M.M.M.M.M.M.M.M.M.M.M.M.>#h@~#{#^#j#k#b#l#m#M.M.",
"$@$@n#o#p#q#r#s#g#t#u#W@C@s@M.M.M.M.M.M.M.M.M.M.M.M.M.M.M.M.M.M.M.M.M.M.M.M.M.M.M.M.M.M.M.M.M.M.M.M.M.M.>#h@~#{#/#v#w#. x#y#M.M.",
"z#A#B#C#D#E#F#G#L@U@V@W@C@:#M.M.M.M.M.M.M.M.M.M.M.M.M.M.M.M.M.M.M.M.M.M.M.M.M.M.M.M.M.M.M.M.M.M.M.M.M.M.>#h@~#{#/#H#I#. x#y#M.M.",
"y@J#K#L#M#N#O#P#I@U@V@W@5#6#M.M.M.M.M.M.M.M.M.M.M.M.M.M.M.M.M.M.M.M.M.M.M.M.M.M.M.M.M.M.M.M.M.M.M.M.M.M.>#h@~#{#/#H#I#. x#y#M.M.",
"M.]@Q#R#S#T#U#V#I@U@h#i#C@:#M.M.M.M.M.M.M.M.M.M.M.M.M.M.M.M.M.M.M.M.M.M.M.M.M.M.M.M.M.M.M.M.M.M.M.M.M.M.>#W#X#Y#Z#`#I#. x#y#M.M.",
"M.]@Q#R#S#T#U#V#g#t#u#W@C@s@M.M.M.M.M.M.M.M.M.M.M.M.M.M.M.M.M.M.M.M.M.M.M.M.M.M.M.M.M.M.M.M.M.M.M.M.M.M. $.$+$@$#$k#$$. x#y#M.M.",
"M.]@Q#R#S#T#U#V#g#%$&$i#*$s@M.M.M.M.M.M.M.M.M.M.M.M.M.M.M.M.M.M.M.M.M.M.M.M.M.M.M.M.M.M.M.M.M.M.M.M.M.M. $=$-$;$j >$. >$x#y#M.M.",
"M.]@,$'$)$!$~${$g#]$^$i#*$s@M.M.M.M.M.M.M.M.M.M.M.M.M.M.M.M.M.M.M.M.M.M.M.M.M.M.M.M.M.M.M.M.M.M.M.M.M.M.M.=$A#/$. . . >$x#y#M.M.",
"M.]@($_$:$<$[$}$|$1$2$W@C@s@M.M.M.M.M.M.M.M.M.M.M.M.M.M.M.M.M.M.M.M.M.M.M.M.M.M.M.M.M.M.M.M.M.M.M.M.M.M.M.=$A#/$. . . >$x#y#M.M.",
"'+L.3$4$5$6$7$8$L@;#V@W@C@s@M.M.M.M.M.M.M.M.M.M.M.M.M.M.M.M.M.M.M.M.M.M.M.M.M.M.M.M.M.M.M.M.M.M.M.M.M.M.M.=$A#/$. . . >$x#y#M.M.",
"9$0$a$b$c$d$e$f$L@U@V@W@C@s@M.M.M.M.M.M.M.M.M.M.M.M.M.M.M.M.M.M.M.M.M.M.M.M.M.M.M.M.M.M.M.M.M.M.M.M.M.M.M.=$A#/$. . . >$g$m#M.M.",
"P.P.h$i$j$k$l$]@L@U@V@W@C@s@M.M.M.M.M.M.M.M.M.M.M.M.M.M.M.M.M.M.M.M.M.M.M.M.M.M.M.M.M.M.M.M.M.M.M.M.M.M.M.=$A#/$. . . >$x#y#M.M.",
". . m$n$'+o$'+M.L@U@V@W@C@s@M.M.M.M.M.M.M.M.M.M.M.M.M.M.M.M.M.M.M.M.M.M.M.M.M.M.M.M.M.M.M.M.M.M.M.M.M.M.M.=$A#/$. . . >$x#y#M.M.",
". . m$p$q$r$s$'+L@U@V@W@C@s@M.M.M.M.M.M.M.M.M.M.M.M.M.M.M.M.M.M.M.M.M.M.M.M.M.M.M.M.M.M.M.M.M.M.M.M.M.M.M.=$A#/$. . . >$x#y#M.M.",
". . t$$@$@u$v$w$L@U@V@W@C@s@M.M.M.M.M.M.M.M.M.M.M.M.M.M.M.M.M.M.M.M.M.M.M.M.M.M.M.M.M.M.M.M.M.M.M.M.M.M.M.=$A#/$. . . >$x#y#M.M.",
". . . . . x$y$w$L@U@V@W@C@s@M.M.M.M.M.M.M.M.M.M.M.M.M.M.M.M.M.M.M.M.M.M.M.M.M.M.M.M.M.M.M.M.M.M.M.M.M.M.M.=$A#/$. . . >$x#y#M.M.",
". . . . . x$y$w$L@U@V@W@C@s@M.M.M.M.M.M.M.M.M.M.M.M.M.M.M.M.M.M.M.M.M.M.M.M.M.M.M.M.M.M.M.M.M.M.M.M.M.M.M.=$A#/$. . . >$x#y#M.M.",
". . . . . x$y$w$L@U@V@W@C@s@M.M.M.M.M.M.M.M.M.M.M.M.M.M.M.M.M.M.M.M.M.M.M.M.M.M.M.M.M.M.M.M.M.M.M.M.M.M.M.=$A#/$. . . >$x#y#M.M.",
". . . . . x$y$w$L@U@V@W@C@s@M.M.M.M.M.M.M.M.M.M.M.M.M.M.M.M.M.M.M.M.M.M.M.M.M.M.M.M.M.M.M.M.M.M.M.M.M.M.M.=$A#/$. . . >$x#y#M.M.",
". . . . . x$y$w$L@U@V@W@C@s@M.M.M.M.M.M.M.M.M.M.M.M.M.M.M.M.M.M.M.M.M.M.M.M.M.M.M.M.M.M.M.M.M.M.M.M.M.M.M.=$A#/$. . . >$x#y#M.M.",
". . . . . x$y$w$L@U@V@W@C@s@M.M.M.M.M.M.M.M.M.M.M.M.M.M.M.M.M.M.M.M.M.M.M.M.M.M.M.M.M.M.M.M.M.M.M.M.M.M.M.=$A#/$. . . >$x#y#M.M.",
". . . . . x$y$w$L@U@V@W@C@s@M.M.M.M.M.M.M.M.M.M.M.M.M.M.M.M.M.M.M.M.M.M.M.M.M.M.M.M.M.M.M.M.M.M.M.M.M.M.M.=$A#/$. . . >$x#y#M.M."};
