/* XPM */
static char *_b07bafd19004576f92c24d85cd9001dTNz8QT3D9mm1Bgqa[] = {
/* columns rows colors chars-per-pixel */
"192 72 19 1 ",
"  c None",
". c #131327",
"X c #251127",
"o c #5C1111",
"O c #46242C",
"+ c #582F28",
"@ c #623436",
"# c #2A2A47",
"$ c #464B67",
"% c #801B1B",
"& c #8B4335",
"* c #B56C4E",
"= c #BD7549",
"- c #FF737A",
"; c #E09E68",
": c #FFA69D",
"> c #FFC380",
", c #FDCBB0",
"< c #FFE9A6",
/* pixels */
"                                                                                                                                                                                                ",
"                                                                                                                                                                                                ",
"                                                                                                                                                                                                ",
"                                                                                                                                                                                                ",
"          XXXX+++                                        XXX++++                                                                                                                                ",
"         X*&&&>><+                XXXX+++               X*&&>>><+                XXX++++                                                                                                        ",
"        X**&&>><<<+              X*&&&>><+             X***&&>><<+              X*&&>>><+                                                                                                       ",
"       X@****<<<<<;+            X**&&>><<<+           X@*****<<<<;+            X***&&>><<+                                                                                                      ",
"       X@&&**<<<>>;+           X@****<<<<<;+          X@&&***<<>>;+           X@*****<<<<;+                                                                                                     ",
"       X@@@@@;;;>>;+           X@&&**<<<>>;+          X@&&@@@;;;;=+           X@&&***<<>>;+                                                                                                     ",
"       XO@,@@;,;;>;+           X@@@@@;;;>>;+          X@&@@,@;;,;=+           X@&&@@@;;;;=+                                                                                                     ",
"       X,@.@,,.;=,=+           XO@,@@;,;;>;+          XO,O@.,,;.;,+           X@&@@,@;;,;=+                                                                                                     ",
"       X,@.,,,.;=,=+           X,@.@,,.;=,=+          XO,O@.,,,.;,+           XO,O@.,,;.;,+                                                                                                     ",
"       XO@:,,,:;==+            X,@.,,,.;=,=+           XOO@:,,,:;=+           XO,O@.,,,.;,+                                                                                                     ",
"        X@oo%%%;=+             XO@:,,,:;==+             XO@%%%oo;+             XOO@:,,,:;=+                                                                                                     ",
"         @##,,$;%               X@oo%%%;=+               %@$,,##;               XO@%%%oo;+                                                                                                      ",
"         o#$$$$$,%               @##,,$;%               %,$$$$$#o                %@$,,##;                                                                                                       ",
"         o#$$$$$,%               o#$$$$$,%              %,$$$$$#o               %,$$$$$#o                                                                                                       ",
"        o-o,,,,o,,%              o#$$$$$,%             %,,o,,,,o-o              %,$$$$$#o                                                                                                       ",
"        o-##$$$$,,%             o-o,,,,o,,%            %,,$$$$##-o             %,,o,,,,o-o                                                                                                      ",
"        oo####$$%%%             o-##$$$$,,%            %%%$$####oo             %,,$$$$##-o                                                                                                      ",
"          .##.#$.               oo###.$$%%%              .$#.##.               %%%$$.###oo                                                                                                      ",
"           .. ...                 ... ...                ... ..                  ... ...                                                                                                        ",
"                                                                                                                                                                                                ",
"                                                                                                                                                                                                ",
"                                                                                                                                                                                                ",
"                                                                                                                                                                                                ",
"                                  XXXX+++                                                                                         XXXX+++                                                       ",
"          XXXX+++                X*&&&>><+                XXXX+++                                         XXXX+++                X*&&&>><+                XXXX+++                               ",
"         X*&&&>><+              X**&&>><<<+              X*&&&>><+                XXXX+++                X*&&&>><+              X**&&>><<<+              X*&&&>><+                XXXX+++       ",
"        X**&&>><<<+            X@****<<<<<;+            X**&&>><<<+              X*&&&>><+              X**&&>><<<+            X@****<<<<<;+            X**&&>><<<+              X*&&&>><+      ",
"       X@****<<<<<;+           X@&&**<<<>>;+           X@****<<<<<;+            X**&&>><<<+            X@****<<<<<;+           X@&&**<<<>>;+           X@****<<<<<;+            X**&&>><<<+     ",
"       X@&&**<<<>>;+           X@@@@@;;;>>;+           X@&&**<<<>>;+           X@****<<<<<;+           X@&&**<<<>>;+           X@@@@@;;;>>;+           X@&&**<<<>>;+           X@****<<<<<;+    ",
"       X@@@@@;;;>>;+           XO@,@@;,;;>;+           X@@@@@;;;>>;+           X@&&**<<<>>;+           X@@@@@;;;>>;+           XO@,@@;,;;>;+           X@@@@@;;;>>;+           X@&&**<<<>>;+    ",
"       XO@,@@;,;;>;+           X,@.@,,.;=,=+           XO@,@@;,;;>;+           X@@@@@;;;>>;+           XO@,@@;,;;>;+           X,@.@,,.;=,=+           XO@,@@;,;;>;+           X@@@@@;;;>>;+    ",
"       X,@.@,,.;=,=+           X,@.,,,.;=,=+           X,@.@,,.;=,=+           XO@,@@;,;;>;+           X,@.@,,.;=,=+           X,@.,,,.;=,=+           X,@.@,,.;=,=+           XO@,@@;,;;>;+    ",
"       X,@.,,,.;=,=+           XO@:,,,:;==+            X,@.,,,.;=,=+           X,@.@,,.;=,=+           X,@.,,,.;=,=+           XO@:,,,:;==+            X,@.,,,.;=,=+           X,@.@,,.;=,=+    ",
"       XO@:,,,:;==+             X@oo%%%;=+             XO@:,,,:;==+            X,@.,,,.;=,=+           XO@:,,,:;==+             X@oo%%%;=+             XO@:,,,:;==+            X,@.,,,.;=,=+    ",
"        X@oo%%%;=+               @.#,,$;%               X@oo%%%;=+             XO@:,,,:;==+             X@oo%%%;=+               @##,,$;%               X@oo%%%;=+             XO@:,,,:;==+     ",
"         @.#,,$;%                 .$$$%,,%               @.#,,$;%               X@oo%%%;=+               @##,,$;%                o#$$$$$,%               @##,,$;%               X@oo%%%;=+      ",
"          .$$$$,,%                .$$%,,,%                .$$$$,,%               @##,,$;%                o#$$$$$,%              o-#$$$$$,,%%             o#$$$$$,%               @##,,$;%       ",
"          .$$$$,,%                o,%,,,%o                .$$$$,,%               o#$$$$$,%              o-#$$$$$,,%            o--o,,,,o,,,,%           o-#$$$$$,,%              o#$$$$$,%      ",
"          o,,,o,,%                .#%,,%$.                o,,,o,,%               o#$$$$$,%             o--o,,,,o,,,%           o--#$$$$.%,,,%          o--o,,,,o,,,%             o#$$$$$,%      ",
"          .#$$o,,%               .###%%#$$.               .#$$o,,%              o-o,,,,o,,%            ooo#$$$$$%,,%           oo#$$$$.##%%%%          ooo#$$$$$%,,%            o-o,,,,o,,%     ",
"          .###$%%%               .##....$$.               .###$%%%              o-##$$$$,,%               .##$$$.%%%             .$$....##.               .##$$$.%%%            o-##$$$$,,%     ",
"          .#. .$$.               ...    ...               .#. .$$.              oo###.$$%%%               .##.$$.                ...    ...               .##.$$.               oo###.$$%%%     ",
"          ..   ...                                        ..   ...                ... ...                  .....                                           .....                  ... ...       ",
"                                                                                                                                                                                                ",
"                                                                                                                                                                                                ",
"                                                                                                                                                                                                ",
"                                                                                                                                                                                                ",
"                                 XXX++++                                                                                         XXX++++                                                        ",
"         XXX++++                X*&&>>><+                XXX++++                                         XXX++++                X*&&>>><+                XXX++++                                ",
"        X*&&>>><+              X***&&>><<+              X*&&>>><+                XXX++++                X*&&>>><+              X***&&>><<+              X*&&>>><+                XXX++++        ",
"       X***&&>><<+            X@*****<<<<;+            X***&&>><<+              X*&&>>><+              X***&&>><<+            X@*****<<<<;+            X***&&>><<+              X*&&>>><+       ",
"      X@*****<<<<;+           X@&&***<<>>;+           X@*****<<<<;+            X***&&>><<+            X@*****<<<<;+           X@&&***<<>>;+           X@*****<<<<;+            X***&&>><<+      ",
"      X@&&***<<>>;+           X@&&@@@;;;;=+           X@&&***<<>>;+           X@*****<<<<;+           X@&&***<<>>;+           X@&&@@@;;;;=+           X@&&***<<>>;+           X@*****<<<<;+     ",
"      X@&&@@@;;;;=+           X@&@@,@;;,;=+           X@&&@@@;;;;=+           X@&&***<<>>;+           X@&&@@@;;;;=+           X@&@@,@;;,;=+           X@&&@@@;;;;=+           X@&&***<<>>;+     ",
"      X@&@@,@;;,;=+           XO,O@.,,;.;,+           X@&@@,@;;,;=+           X@&&@@@;;;;=+           X@&@@,@;;,;=+           XO,O@.,,;.;,+           X@&@@,@;;,;=+           X@&&@@@;;;;=+     ",
"      XO,O@.,,;.;,+           XO,O@.,,,.;,+           XO,O@.,,;.;,+           X@&@@,@;;,;=+           XO,O@.,,;.;,+           XO,O@.,,,.;,+           XO,O@.,,;.;,+           X@&@@,@;;,;=+     ",
"      XO,O@.,,,.;,+            XOO@:,,,:;=+           XO,O@.,,,.;,+           XO,O@.,,;.;,+           XO,O@.,,,.;,+            XOO@:,,,:;=+           XO,O@.,,,.;,+           XO,O@.,,;.;,+     ",
"       XOO@:,,,:;=+             XO@%%%oo;+             XOO@:,,,:;=+           XO,O@.,,,.;,+            XOO@:,,,:;=+             XO@%%%oo;+             XOO@:,,,:;=+           XO,O@.,,,.;,+     ",
"        XO@%%%oo;+               %@$,,#.;               XO@%%%oo;+             XOO@:,,,:;=+             XO@%%%oo;+               %@$,,##;               XO@%%%oo;+             XOO@:,,,:;=+     ",
"         %@$,,#.;               %,,%$$$.                 %@$,,#.;               XO@%%%oo;+               %@$,,##;               %,$$$$$#o                %@$,,##;               XO@%%%oo;+      ",
"        %,,$$$$.                %,,,%$$.                %,,$$$$.                 %@$,,##;               %,$$$$$#o             %%,,$$$$$#-o              %,$$$$$#o                %@$,,##;       ",
"        %,,$$$$.                o%,,,%,o                %,,$$$$.                %,$$$$$#o              %,,$$$$$#-o           %,,,,o,,,,o--o            %,,$$$$$#-o              %,$$$$$#o       ",
"        %,,o,,,o                .$%,,%#.                %,,o,,,o                %,$$$$$#o             %,,,o,,,,o--o          %,,,%.$$$$#--o           %,,,o,,,,o--o             %,$$$$$#o       ",
"        %,,o$$#.               .$$#%%###.               %,,o$$#.               %,,o,,,,o-o            %,,%$$$$$#ooo          %%%%##.$$$$#oo           %,,%$$$$$#ooo            %,,o,,,,o-o      ",
"        %%%$###.               .$$....##.               %%%$###.               %,,$$$$##-o            %%%.$$$##.               .##....$$.             %%%.$$$##.               %,,$$$$##-o      ",
"        .$$. .#.               ...    ...               .$$. .#.               %%%$$.###oo               .$$.##.               ...    ...                .$$.##.               %%%$$.###oo      ",
"        ...   ..                                        ...   ..                 ... ...                  .....                                           .....                  ... ...        ",
"                                                                                                                                                                                                "
};
