/* XPM */
static char *d0bfa5dd8a7049e1a52160c69dbc1445FF3IstPgMDKvo0lQ[] = {
/* columns rows colors chars-per-pixel */
"64 64 61 1 ",
"  c #743747",
". c #773947",
"X c #7E3E47",
"o c #B35D3D",
"O c #B96139",
"+ c #BD6339",
"@ c #BF6738",
"# c #BD653E",
"$ c #B8683A",
"% c #CE6D36",
"& c #C1673E",
"* c #C4683A",
"= c #C36F3B",
"- c #CA6B38",
"; c #C86A3A",
": c #C96E39",
"> c #D16F35",
", c #C47135",
"< c #CA7337",
"1 c #CB7636",
"2 c #CD7537",
"3 c #CF7936",
"4 c #C6723B",
"5 c #D37333",
"6 c #D57732",
"7 c #D17034",
"8 c #D27234",
"9 c #D67932",
"0 c #D87D31",
"q c #D97E30",
"w c #824047",
"e c #844146",
"r c #894343",
"t c #8B4542",
"y c #8F4947",
"u c #8F4A46",
"i c #8C4848",
"p c #954C43",
"a c #944C48",
"s c #985141",
"d c #9E5449",
"f c #A55745",
"g c #A75B44",
"h c #AD5E43",
"j c #A95945",
"k c #AB5A44",
"l c #AA5D44",
"z c #A25649",
"x c #A95B49",
"c c #AF5F48",
"v c #AD5E4A",
"b c #AF6048",
"n c #B76543",
"m c #B36146",
"M c #B66244",
"N c #B66344",
"B c #B56445",
"V c #B86743",
"C c #BC6540",
"Z c #DA8030",
"A c #DB8230",
/* pixels */
"vM;>>>>>>;MvvV3AA077>>>>>>>>>>>>>>>>>>>>>;MvvV3AA077>>>>>>>>>;Mv",
"vM;>>>>>>;MvvV3AA977>>>>>>>>>>>>>>>>>>>>>;MvvV3A0977>>>>>>>>>;Mv",
"vM;>>>>>>;MvvV309>7>>>>>>>>>>>>>>>>>>>>>>;MvvV307777>>>>>>>>>;Mv",
"vM;>>>>>>;MvvV305>>>>>>>>>>>>>>>>>>>>>>>>;MvvV308>77>>>>>>>>>;Mv",
"vM;>>>>>>*MvvV3057>>>>>>>>7>>>>>>>>>>>>>>;MvbV3088>>>>>>>>>>>;Mv",
"dfo+*;;;;#kddl=2;;;;;;;;;;;;;;;;;;;;;;;;;&mvvB42::;;;;;;;;;*Cofz",
"werpkMMMMkuwwulnMMMMMMMMMMMBMMMMMMMMMMMMMmbvvbBBVMMMMMMMMMMkptww",
"werpkMMMMkpttpkMMMMMMMMmMvBBVVMMMMMMMMMMMMMMMMMMVMMMMMMmccMhstww",
"dfo+*;;;;*+OO+*;;;;;;;;&mB4332:;;;;;;;;;;;;;;;;;;;;;;;;&mM42,$ld",
"vM;>>>>>>>>>>>>>>>>>>>>;MV3AA97>>>>>>>>>>>>>>>>>>>>>>>>;MV3A02Bv",
"vM;>>>>>>>>>>>>>>>>>>>>;BV3A787>>>>>>>>>>>>>>>>>>>>>>>>;MV309-Mv",
"vM;>>>>>>>>>>>>>>>>>>>>;MV3087>>>>>>>>>>>>>>>>>>>>>>>>>;MV305;Mv",
"vM;>>>>>>>>7>>>>>>>>>>>;BV3077>>>>>>>>>>>>>>>>>>>>>>>>>;MV305*Bv",
"dfo+*&++*;;;;;;;;;;;;;;&mM42:;;;;;;;;;;;;;;;;;;;;;;;;*;#kl=<@ogz",
"werpkkppkMMMMMMMMMMMMMMmccBVMMMMMMMMMMMMMMMMMMMMMMMMMMMkuulhprww",
"werpkkppkMvvvbMVVVMMMMMMMMMMMMMMMMMMMMMMMMvvvmmVnMMMMMMkppkkptww",
"dfo+**++*&mvvM4332:;;;;;;;;;;;;;;;;;;;;;;&mvbB4391;;;;;*#o;;ookd",
"vM;>>>>>>;MvvV3A097>>>>>>>>>>>>>>>>>>>>>7*BvvB3AA65:>>>>>5>>5-Mv",
"vM;>>>>>>;MvvV309777>>>>>>>>>>>>>>>>>>>>7;MvvV30255>>>>>>>>>>;Mv",
"vM;>>>>>>;MvvV307777>>>>>>>>>>>>>>>>>>>>>;BvvV30>5>>>>>>>>>>>;Mv",
"vM;>>>>>>;MvvV305>>>>>>>7>>>>>>7>>>>>>>>>;MvvV605>7>>>7>>>>>>;Mv",
"dfo+*;;;*#kddl=2;;;;;;;;;;;;;;;;;;;;;;;;;&mvvM42--;*;;;*;;;*+okd",
"werpkMMMMkuwwulnMnMMMBMBMMMMMMMMMMMMMMMMMmmvvcMMVMnMMMMMMMMhprww",
"werpkMMMMkpttpkMMMMMBMMMvmmVVVBBMMMMMMMMMMMMBMBMnMMMMMMMccMhstww",
"dfo+*;;;;*+OO+*;;;;;;;;&mM4362::;;;;;;;;;;;;;;;;;;;;;;;&mM41,$gd",
"vM;>>>>>>>>>>>>>7>>>>>>;MV60097>>>>>>>>>>>>>>>>>>>>>>>>;MV6AZ1mb",
"vM;>>>>>>>>>>>>>>>>>>>>;BV3097>>>>>>>>>>>>>>>>>>>>>>>>>;MV209:Bb",
"vM;>>>>>>>>>>>>>>>>>>>>;BV307>>>>>>>>>>>>>>>>>>>>>>>>>>;MV80>;mb",
"vM;>>>>>>>>>>>>>>>>>>>>;Bn3077>>>>>>>>>>>>>>>5>>>>>>>>>;MB307:Mv",
"dfo+*;;;;;;;;;;;;;;;;;;&mB47:::*;;;;;;;;;;;;*;;*;;;;;*;#kl41@okd",
"werpkMMMMMMMMMMMMMnMMMMmbvMVMMMMMMMMMMMMBMMMMMMMMMMMMMMgiallprww",
"werpkMMMMMvvvbBVVBMMMMMMMnMMMMMMMMMMMMMMMmbvvmMVVVMMMMMkppkkprww",
"dfo+*;;;:&mvvn4332-;;;;;;;;;;;;;;;;;;;;;;&mvvB4332::;;;;C+&*+ofd",
"vM;>>>>>>*MvvV30A97>>>>>>>>>>>>>>>>>>>>>>;MvvV3A09>>>>>>>>>>>;Mv",
"vM;>>>>>>;Mvvn3057>>>>>>>>>>>>>>>>>>>>>>>;MvvV30977>>>>>>>>>>;Mv",
"vM;>>>>>5;MvvV3057>>>>>>>>>>>>>>>>>>>>>>>;MvvV307>>>>>>>>>>>>;Mv",
"vM*>>>>>>;MvhB307>>>>>>>>>>>7>>>>>>>>>>>>;MvbV607777>>>>>>77>;Mv",
"dkC;;;;;*#kddk42::;:;;;;;;;;;;;;;;;;;;;;;&mvbm4:::;;;;;;;;;;;#kd",
"wakMMMMMMkiweakMMMMMMMMMMMMMMMMBMMMMMMMMMmmvbmMVBMMMMMMMMMMMMltw",
"wikMMMMMMkpttpkMMMMMMMMmccMVVVBMMMMMMMMMMMmMmmMMMMMMMMMmvbMVBkaw",
"dk#;;;;;;*Coo*;-;;;;;;;&mM4333:;;;;;;;;;;;;;;;;;;;;;;;;&MB4634gd",
"vM;>>>>>>>>>>>>>>>>>>>>;BV30097>>>>>>>>>>>>>>>>>>>>>>>>;MB8AA1mb",
"vM*>>>>>>>>>>>>>>>>>>>>;MV6A987>>>>>>>>>>>>>>>>>>>>>>>>;MV300:mb",
"vM*>>>>>>>>>>>>>>>>>>>>;BV30777>>>>>>>>>>>>>>>>>>>>>>>>;MV307&mb",
"vM;>>>>>>>>>>>>>>>>>>>>;BV607>>>>>>>>>>>>>7>>>>>>>>>7>>;Mn308&nb",
"zfo+**++*;;;;;;;;;;;;;;&mM4=4;;;;;;;;;;;;;;;;;;;;;;;;*;Ckl=<;ogd",
"wwrpkkppkMMMMVMBMMMVMMMmmvMMMBMMMMMMMMMMMMMMMBMMMMMMMMMkuukhprww",
"werpkkppkmcvvcMVVMBMMMMMMBMMVMMMMMMMMMMMMmvvvvMVVVMMMMMkppkhprww",
"dfo+;&++*&MvvM:332-:;;;;;;;;;;;;;;;;;;;;:&mvbm4632;-;;;*++**+ofd",
"vM;>>>>>7*MvvV90A97>>>>>>>>>>>>>>>>>>>>>7&mbbV3009>5>>>>>>>>>;Mv",
"vM;>>>>>>;MvbV3A97>>>>>>>>>>>>>>>>>>>>>>7;mbbV309>>5>>>>>>>>>;Mv",
"vM&;>>>>>;MvvB307>>>>>>>>>>>>>>>>>>>>>>>>;bvvV305>>>>>>>>>>>;&mv",
"vcc#;>>>7*MvvV3057>>>>>>>>7>>>7>>>>>>>>>>;MvvV605%2>>>7>>>>-#ccv",
"dddfoOoO&#gddg41;;:;;;;;;;;;;;;;;;;;;;;;;&mvvB42*OO+****++oofddz",
"wwwwrttpkkawwilBMMMMMMMMMMMMMBMMMMMMMMMMMmbvvcMhpttphMMkpttrwwww",
"..XweewpkkpttpkMMMMMMMMmmvMVBVMMMMMMMMMMMMMMMMMkpttpkMMkaewwww  ",
".Xaddddk#*+OO+*;;;;;;;;&mB:332:;;;;;;;;;;;;;;;;*+OO+*;;#fddddpX ",
" wdvvvvM*7>>>>>>>>>>>>>;BV30097>>>>>>>>>>>>>>>>>>>>>>>>;Mcvvvdw ",
" wdvvvvM;7>>>>>>>>>>>>>;BV3A97>>>>>>>>>>>>>>>>>>>>>>>>>;Mvvvvdw ",
" Xpzxvvh&;>>>>>>>>>>>>>;BV3077>>>>>>>>>>>>>>>>>>>>>>>%;&ccvkzaX ",
" .XizvvvM#;>>>>>>>>>>>7;VV3077>>>>>>>>>>>>>>>>>>>>>>>;#MvvvziX. ",
"   Xadddzfo+*;;;;;;;;;;&mM42:;:;;;;;;;;;;;;;;;;*+OOOOofddddaX   ",
"   .XwwwwwwpkMMMMMMMMMMmvbMVMMMMMMMMMMMMMMMMMMMkpttttrwwwwwX.   ",
"         ..wzvvvvvvvvvvvvvvvvvvvvvvvvvvvvvvvvvvdw               "
};
